<svg width="33" height="16" viewBox="0 0 33 16" fill="none" xmlns="http://www.w3.org/2000/svg">
<g clip-path="url(#clip0_1324_159846)">
<path d="M0.322325 7.01856C0.372941 3.23921 3.45108 0.202019 7.23077 0.202019H32.3858C32.611 0.202019 32.7928 0.38623 32.7898 0.611469L32.6777 8.98144C32.6271 12.7608 29.5489 15.798 25.7692 15.798H0.61423C0.388969 15.798 0.20721 15.6138 0.210227 15.3885L0.322325 7.01856Z" fill="url(#paint0_linear_1324_159846)" stroke="url(#paint1_linear_1324_159846)" stroke-width="0.404039"/>
<mask id="mask0_1324_159846" style="mask-type:alpha" maskUnits="userSpaceOnUse" x="-1" y="0" width="34" height="16">
<path d="M0.200066 7.11108C0.200066 3.29531 3.29336 0.202019 7.10913 0.202019H32.3838C32.6091 0.202019 32.7908 0.38623 32.7878 0.611469L32.6757 8.98144C32.6251 12.7608 29.547 15.798 25.7673 15.798H0.604107C0.380962 15.798 0.200066 15.6171 0.200066 15.3939V7.11108Z" fill="url(#paint2_linear_1324_159846)" stroke="url(#paint3_linear_1324_159846)" stroke-width="0.404039"/>
</mask>
<g mask="url(#mask0_1324_159846)">
<g style="mix-blend-mode:soft-light" opacity="0.6">
<path d="M22.506 -10.4809L15.0684 -18.5713L-9.64473 10.6551L-2.20707 18.7455L22.506 -10.4809Z" fill="white"/>
</g>
<g style="mix-blend-mode:soft-light" opacity="0.6">
<path d="M36.1453 2.66714L30.9336 -3.00195L12.4278 18.8835L17.6395 24.5526L36.1453 2.66714Z" fill="white"/>
</g>
</g>
<path d="M2.17773 7.45801C2.17773 4.42044 4.64017 1.95801 7.67773 1.95801H30.4553C30.5892 1.95801 30.6977 2.06654 30.6977 2.20043V8.54172C30.6977 11.5793 28.2353 14.0417 25.1977 14.0417H2.42016C2.28627 14.0417 2.17773 13.9332 2.17773 13.7993V7.45801Z" fill="url(#paint4_linear_1324_159846)"/>
<path d="M6.96156 11.4336V4.63359H8.65156L10.8016 8.20359L11.3216 9.28359L11.2416 4.63359H12.8416V11.4336H11.1516L9.00156 7.86359L8.48156 6.77359L8.56156 11.4336H6.96156ZM16.3812 11.5936C14.7512 11.5936 13.7412 10.5136 13.7412 8.74359C13.7412 6.91359 14.7812 5.88359 16.3812 5.88359C18.0112 5.88359 19.0312 6.98359 19.0312 8.74359C19.0312 10.5636 17.9812 11.5936 16.3812 11.5936ZM16.3812 10.3536C17.0912 10.3536 17.4612 9.79359 17.4612 8.74359C17.4612 7.70359 17.0812 7.12359 16.3812 7.12359C15.6812 7.12359 15.3112 7.69359 15.3112 8.74359C15.3112 9.78359 15.6912 10.3536 16.3812 10.3536ZM19.6636 11.4336V9.82359H21.2636V11.4336H19.6636ZM27.2322 9.57359C27.2322 10.6736 26.3422 11.5936 24.6522 11.5936C23.1722 11.5936 22.1622 10.7736 21.9822 9.44359H23.5222C23.6222 10.0036 23.9722 10.3536 24.6422 10.3536C25.3122 10.3536 25.6922 10.0536 25.6922 9.50359C25.6922 9.07359 25.4222 8.70359 24.3922 8.70359H23.9522V7.59359H24.3022C25.3322 7.59359 25.5222 7.16359 25.5222 6.82359C25.5222 6.37359 25.2022 6.08359 24.6522 6.08359C24.0522 6.08359 23.7322 6.40359 23.6422 6.94359H22.1122C22.2822 5.64359 23.2422 4.84359 24.6622 4.84359C26.2222 4.84359 27.0622 5.75359 27.0622 6.80359C27.0622 7.39359 26.8222 7.80359 26.3022 8.07359C26.9522 8.40359 27.2322 8.91359 27.2322 9.57359Z" fill="white"/>
</g>
<defs>
<linearGradient id="paint0_linear_1324_159846" x1="16.5" y1="0" x2="16.5" y2="16" gradientUnits="userSpaceOnUse">
<stop stop-color="#F48D53"/>
<stop offset="1" stop-color="#F79A66"/>
</linearGradient>
<linearGradient id="paint1_linear_1324_159846" x1="16.5" y1="0" x2="16.5" y2="16" gradientUnits="userSpaceOnUse">
<stop stop-color="#FFB067"/>
<stop offset="1" stop-color="#E67E1F"/>
</linearGradient>
<linearGradient id="paint2_linear_1324_159846" x1="16.498" y1="0" x2="16.498" y2="16" gradientUnits="userSpaceOnUse">
<stop stop-color="#F4B615"/>
<stop offset="1" stop-color="#FFD057"/>
</linearGradient>
<linearGradient id="paint3_linear_1324_159846" x1="16.498" y1="0" x2="16.498" y2="16" gradientUnits="userSpaceOnUse">
<stop stop-color="#FFCB44"/>
<stop offset="1" stop-color="#FA9A02"/>
</linearGradient>
<linearGradient id="paint4_linear_1324_159846" x1="16.4879" y1="1.95801" x2="16.4879" y2="14.0417" gradientUnits="userSpaceOnUse">
<stop stop-color="#E48139"/>
<stop offset="1" stop-color="#E08B5B"/>
</linearGradient>
<clipPath id="clip0_1324_159846">
<rect width="33" height="16" fill="white"/>
</clipPath>
</defs>
</svg>
