<svg width="520" height="480" viewBox="0 0 520 480" fill="none" xmlns="http://www.w3.org/2000/svg">
<rect width="520" height="480" fill="white"/>
<g clip-path="url(#clip0_128_5921)">
<path d="M257.28 11.665H39.3V296.445H257.28V11.665Z" fill="#1DA2B4" fill-opacity="0.1"/>
<path d="M273.1 28.665H55.1201V313.445H273.1V28.665Z" fill="white" stroke="#090000" stroke-miterlimit="10"/>
<path d="M209.11 100.075H152.12V111.235H209.11V100.075Z" fill="#1DA2B4" stroke="#090000" stroke-miterlimit="10"/>
<path d="M223.71 81.3751H152.12V92.5351H223.71V81.3751Z" fill="#1DA2B4" stroke="#090000" stroke-miterlimit="10"/>
<path d="M241.18 62.665H152.12V73.825H241.18V62.665Z" fill="#1DA2B4" stroke="#090000" stroke-miterlimit="10"/>
<path d="M104.12 116.665C120.689 116.665 134.12 103.234 134.12 86.665C134.12 70.0965 120.689 56.665 104.12 56.665C87.5516 56.665 74.1201 70.0965 74.1201 86.665C74.1201 103.234 87.5516 116.665 104.12 116.665Z" fill="white" stroke="#090000" stroke-miterlimit="10"/>
<path d="M104.272 86.121C108.244 86.121 111.464 82.6611 111.464 78.393C111.464 74.125 108.244 70.665 104.272 70.665C100.3 70.665 97.0801 74.125 97.0801 78.393C97.0801 82.6611 100.3 86.121 104.272 86.121Z" fill="#1DA2B4" stroke="#090000" stroke-width="0.8" stroke-miterlimit="10"/>
<path d="M118.424 102.953C118.344 94.625 112.04 87.905 104.272 87.905C96.5041 87.905 90.2001 94.625 90.1201 102.953H118.424Z" fill="#1DA2B4" stroke="#090000" stroke-width="0.8" stroke-miterlimit="10"/>
<path d="M319.97 149.125H74.55V264.135H319.97V149.125Z" fill="white" stroke="#090000" stroke-miterlimit="10"/>
<path d="M245.94 186.345H89.24V209.485H245.94V186.345Z" fill="#FB8E0C" stroke="#090000" stroke-miterlimit="10"/>
<path d="M296 186.345H268.06C262.333 186.345 257.69 190.988 257.69 196.715V199.115C257.69 204.842 262.333 209.485 268.06 209.485H296C301.727 209.485 306.37 204.842 306.37 199.115V196.715C306.37 190.988 301.727 186.345 296 186.345Z" fill="white" stroke="#090000" stroke-miterlimit="10"/>
<path d="M89.24 226.865H245.94H89.24Z" stroke="#090000" stroke-miterlimit="10"/>
<path d="M89.24 236.865H245.94H89.24Z" stroke="#090000" stroke-miterlimit="10"/>
<path d="M319.97 149.125H74.55V170.785H319.97V149.125Z" fill="white" stroke="#090000" stroke-miterlimit="10"/>
<path d="M93.24 164.955C95.4491 164.955 97.24 163.164 97.24 160.955C97.24 158.746 95.4491 156.955 93.24 156.955C91.0309 156.955 89.24 158.746 89.24 160.955C89.24 163.164 91.0309 164.955 93.24 164.955Z" fill="#FB8E0C" stroke="#090000" stroke-miterlimit="10"/>
<path d="M108.24 164.955C110.449 164.955 112.24 163.164 112.24 160.955C112.24 158.746 110.449 156.955 108.24 156.955C106.031 156.955 104.24 158.746 104.24 160.955C104.24 163.164 106.031 164.955 108.24 164.955Z" fill="#FB8E0C" stroke="#090000" stroke-miterlimit="10"/>
<path d="M123.24 164.955C125.449 164.955 127.24 163.164 127.24 160.955C127.24 158.746 125.449 156.955 123.24 156.955C121.031 156.955 119.24 158.746 119.24 160.955C119.24 163.164 121.031 164.955 123.24 164.955Z" fill="#FB8E0C" stroke="#090000" stroke-miterlimit="10"/>
<path d="M474.71 369.665C468.88 384.795 461.78 393.665 454.12 393.665" stroke="#090000" stroke-miterlimit="10"/>
<path d="M477.396 264.735C477.396 298.106 473.743 328.281 467.857 350.084C464.913 360.992 461.424 369.748 457.591 375.753C453.728 381.805 449.69 384.805 445.712 384.805C441.733 384.805 437.695 381.805 433.832 375.753C430 369.748 426.511 360.992 423.566 350.084C417.68 328.281 414.027 298.106 414.027 264.735C414.027 231.364 417.68 201.189 423.566 179.386C426.511 168.478 430 159.722 433.832 153.717C437.695 147.665 441.733 144.665 445.712 144.665C449.69 144.665 453.728 147.665 457.591 153.717C461.424 159.722 464.913 168.478 467.857 179.386C473.743 201.189 477.396 231.364 477.396 264.735Z" fill="#1DA2B4" stroke="black" stroke-width="2"/>
<path d="M489.991 228.613C490.955 240.017 491.473 252.149 491.473 264.735C491.473 305.795 485.953 342.09 477.514 363.979" stroke="#090000" stroke-miterlimit="10"/>
<path d="M483.852 187.044C485.853 195.883 487.517 205.796 488.772 216.509" stroke="#090000" stroke-miterlimit="10"/>
<path d="M117.039 356.353C131.654 380.561 141.526 404.457 145.691 423.499C147.775 433.025 148.418 441.28 147.549 447.728C146.678 454.189 144.318 458.669 140.557 460.939C136.797 463.21 131.733 463.211 125.611 460.973C119.499 458.739 112.494 454.325 105.035 448.044C90.1247 435.488 73.5772 415.623 58.9623 391.415C44.3474 367.207 34.4759 343.311 30.3104 324.269C28.2265 314.743 27.5834 306.488 28.4528 300.04C29.3237 293.579 31.6839 289.099 35.4441 286.829C39.2043 284.558 44.2687 284.557 50.391 286.795C56.5023 289.029 63.5076 293.443 70.9667 299.724C85.8768 312.28 102.424 332.145 117.039 356.353Z" fill="#1DA2B4" stroke="black" stroke-width="2"/>
<path d="M39.7001 381.835C32.8301 367.855 27.7401 354.505 24.6001 342.685" stroke="#090000" stroke-miterlimit="10"/>
<path d="M116.41 467.865C96.9402 460.795 69.4002 432.405 47.1802 394.505" stroke="#090000" stroke-miterlimit="10"/>
<path d="M67.6301 332.335L108.14 403.505L219.39 367.345C234.24 362.795 257.3 352.105 261.23 337.155C262.42 332.605 263.58 318.505 263.58 318.505L255.4 281.075L251.67 263.145L199.63 250.225L170.97 278.095L166.2 304.205L67.6401 332.315L67.6301 332.335Z" fill="white"/>
<path d="M108.14 403.505L218.96 367.985C222.22 366.995 239.06 358.875 241.96 357.455C252.79 352.135 256.75 348.365 261.23 337.155C263.75 329.865 264.25 322.025 262.67 314.475L255.85 281.835" stroke="#090000" stroke-miterlimit="10"/>
<path d="M179.28 301.015L67.6301 332.335" stroke="#090000" stroke-miterlimit="10"/>
<path d="M171.09 312.915L156.05 235.975C154.66 230.045 158.34 224.115 164.27 222.715C170.2 221.325 176.13 225.005 177.53 230.935L191.4 290.035" fill="white"/>
<path d="M171.09 312.915L156.05 235.975C154.66 230.045 158.34 224.115 164.27 222.715C170.2 221.325 176.13 225.005 177.53 230.935L191.4 290.035" stroke="#090000" stroke-miterlimit="10"/>
<path d="M188.84 279.165L173.87 215.395C172.48 209.465 176.16 203.535 182.09 202.135C188.02 200.745 193.95 204.425 195.35 210.355L208.93 268.195" fill="white"/>
<path d="M188.84 279.165L173.87 215.395C172.48 209.465 176.16 203.535 182.09 202.135C188.02 200.745 193.95 204.425 195.35 210.355L208.93 268.195" stroke="#090000" stroke-miterlimit="10"/>
<path d="M211.13 278.025L197.55 220.185C196.16 214.255 199.84 208.325 205.77 206.925C211.7 205.535 217.63 209.215 219.03 215.145L232.61 272.985" fill="white"/>
<path d="M211.13 278.025L197.55 220.185C196.16 214.255 199.84 208.325 205.77 206.925C211.7 205.535 217.63 209.215 219.03 215.145L232.61 272.985" stroke="#090000" stroke-miterlimit="10"/>
<path d="M232.45 273.025L221.24 225.255C219.85 219.325 223.53 213.395 229.46 211.995C235.39 210.605 241.32 214.285 242.72 220.215L255.85 281.845" fill="#090000"/>
<path d="M222.45 322.985C222.45 322.985 220.71 291.865 176.98 299.525L154.19 277.845C148.73 272.645 140.07 272.915 134.95 278.445C129.81 283.985 130.2 292.655 135.82 297.715L194.79 350.765C207.18 359.025 222.41 361.855 236.93 358.595L237.99 358.355C241 357.685 243.85 356.475 246.43 354.775C254.95 349.155 272.72 334.875 273.08 313.415" fill="white"/>
<path d="M222.45 322.985C222.45 322.985 220.71 291.865 176.98 299.525L154.19 277.845C148.73 272.645 140.07 272.915 134.95 278.445C129.81 283.985 130.2 292.655 135.82 297.715L194.79 350.765C207.18 359.025 222.41 361.855 236.93 358.595L237.99 358.355C241 357.685 243.85 356.475 246.43 354.775C254.95 349.155 272.72 334.875 273.08 313.415" stroke="#090000" stroke-miterlimit="10"/>
<path d="M269.62 329.515L222.68 296.935C212.14 289.625 207.14 278.985 211.5 273.165C215.86 267.355 227.94 268.575 238.48 275.885L276.26 302.105" fill="#090000"/>
<path d="M445.06 224.885V306.675L323.7 337.275C308.63 341.075 292.64 337.805 280.27 328.395L217.69 280.785L257 284.085L256.72 269.425L280.4 224.885L319.31 234.185L336.83 254.445L445.05 224.875L445.06 224.885Z" fill="white"/>
<path d="M445.06 306.665L323.7 337.265C320.4 338.095 317.05 338.595 313.84 338.855C301.82 339.865 289.86 336.275 280.26 328.965L230.13 290.835L256.99 284.075L256.71 269.415L280.39 224.875" stroke="#090000" stroke-miterlimit="10"/>
<path d="M323.96 257.965L445.06 224.885" stroke="#090000" stroke-miterlimit="10"/>
<path d="M251.64 284.995L236.6 208.055C235.21 202.125 238.89 196.195 244.82 194.795C250.75 193.405 256.68 197.085 258.08 203.015L271.95 262.115" fill="white"/>
<path d="M251.64 284.995L236.6 208.055C235.21 202.125 238.89 196.195 244.82 194.795C250.75 193.405 256.68 197.085 258.08 203.015L271.95 262.115" stroke="#090000" stroke-miterlimit="10"/>
<path d="M246.24 303.125L219.92 284.335C214.01 280.115 212.64 271.905 216.86 265.995C221.08 260.085 229.29 258.715 235.2 262.935L261.52 281.725" fill="white"/>
<path d="M246.24 303.125L219.92 284.335C214.01 280.115 212.64 271.905 216.86 265.995C221.08 260.085 229.29 258.715 235.2 262.935L261.52 281.725" stroke="#090000" stroke-miterlimit="10"/>
<path d="M269.39 251.245L254.42 187.475C253.03 181.545 256.71 175.615 262.64 174.215C268.57 172.825 274.5 176.505 275.9 182.435L289.48 240.275" fill="white"/>
<path d="M269.39 251.245L254.42 187.475C253.03 181.545 256.71 175.615 262.64 174.215C268.57 172.825 274.5 176.505 275.9 182.435L289.48 240.275" stroke="#090000" stroke-miterlimit="10"/>
<path d="M291.68 250.115L278.1 192.275C276.71 186.345 280.39 180.415 286.32 179.015C292.25 177.625 298.18 181.305 299.58 187.235L313.16 245.075" fill="white"/>
<path d="M291.68 250.115L278.1 192.275C276.71 186.345 280.39 180.415 286.32 179.015C292.25 177.625 298.18 181.305 299.58 187.235L313.16 245.075" stroke="#090000" stroke-miterlimit="10"/>
<path d="M312.99 245.105L301.78 197.335C300.39 191.405 304.07 185.475 310 184.075C315.93 182.685 321.86 186.365 323.26 192.295L336.39 253.925" fill="white"/>
<path d="M312.99 245.105L301.78 197.335C300.39 191.405 304.07 185.475 310 184.075C315.93 182.685 321.86 186.365 323.26 192.295L336.39 253.925" stroke="#090000" stroke-miterlimit="10"/>
<path d="M351.62 42.8051H251.36V134.505H351.62V42.8051Z" fill="white" stroke="#090000" stroke-miterlimit="10"/>
<path d="M304.46 116.915H276.84L271.19 111.165L265.53 105.415V60.0851H304.46V116.915Z" fill="white" stroke="#090000" stroke-miterlimit="10"/>
<path d="M266.05 104.825H277.37V116.325" fill="white"/>
<path d="M266.05 104.825H277.37V116.325" stroke="#090000" stroke-miterlimit="10"/>
<path d="M292.047 83.8633H286.129V82.8818C286.129 81.8369 286.06 81.1533 285.924 80.8311C285.787 80.5088 285.494 80.3477 285.045 80.3477C284.683 80.3477 284.41 80.4893 284.224 80.7725C284.049 81.0459 283.961 81.4609 283.961 82.0176C283.961 82.9453 284.146 83.5947 284.517 83.9658C284.879 84.3369 285.943 85.0596 287.711 86.1338C289.215 87.042 290.24 87.7402 290.787 88.2285C291.334 88.707 291.793 89.3906 292.164 90.2793C292.545 91.1582 292.735 92.2568 292.735 93.5752C292.735 95.6846 292.227 97.3398 291.212 98.541C290.196 99.7422 288.673 100.484 286.641 100.768V102.994H283.917V100.694C282.335 100.538 280.953 99.9326 279.771 98.8779C278.59 97.8135 277.999 95.9629 277.999 93.3262V92.1689H283.917V93.6191C283.917 95.2109 283.975 96.2021 284.093 96.5928C284.219 96.9736 284.517 97.1641 284.986 97.1641C285.386 97.1641 285.684 97.0322 285.88 96.7686C286.075 96.4951 286.173 96.0947 286.173 95.5674C286.173 94.2393 286.08 93.292 285.894 92.7256C285.709 92.1494 285.074 91.5244 283.99 90.8506C282.183 89.7178 280.953 88.8877 280.299 88.3604C279.654 87.8232 279.093 87.0713 278.614 86.1045C278.145 85.1377 277.911 84.0439 277.911 82.8232C277.911 81.0557 278.409 79.6689 279.405 78.6631C280.411 77.6572 281.915 77.0371 283.917 76.8027V74.9131H286.641V76.8027C288.468 77.0371 289.835 77.6523 290.743 78.6484C291.651 79.6348 292.105 81.002 292.105 82.75C292.105 82.9941 292.086 83.3652 292.047 83.8633Z" fill="#1DA2B4"/>
<path d="M292.047 83.8633V84.3633H292.509L292.545 83.9024L292.047 83.8633ZM286.129 83.8633H285.629V84.3633H286.129V83.8633ZM284.224 80.7725L283.806 80.4984L283.804 80.5021L284.224 80.7725ZM284.517 83.9658L284.876 83.617L284.871 83.6123L284.517 83.9658ZM287.711 86.1338L287.451 86.5611L287.452 86.5618L287.711 86.1338ZM290.787 88.2285L290.454 88.6015L290.458 88.6048L290.787 88.2285ZM292.164 90.2793L291.702 90.472L291.705 90.4781L292.164 90.2793ZM291.212 98.541L291.593 98.8638L291.212 98.541ZM286.641 100.768L286.572 100.272L286.141 100.332V100.768H286.641ZM286.641 102.994V103.494H287.141V102.994H286.641ZM283.917 102.994H283.417V103.494H283.917V102.994ZM283.917 100.694H284.417V100.241L283.966 100.197L283.917 100.694ZM279.771 98.8779L279.437 99.2494L279.438 99.251L279.771 98.8779ZM277.999 92.1689V91.6689H277.499V92.1689H277.999ZM283.917 92.1689H284.417V91.6689H283.917V92.1689ZM284.093 96.5928L283.614 96.7364L283.616 96.7437L283.618 96.7509L284.093 96.5928ZM285.88 96.7686L286.281 97.0662L286.287 97.0592L285.88 96.7686ZM285.894 92.7256L285.418 92.8789L285.419 92.8812L285.894 92.7256ZM283.99 90.8506L283.724 91.2742L283.726 91.2752L283.99 90.8506ZM280.299 88.3604L279.978 88.7445L279.985 88.7496L280.299 88.3604ZM278.614 86.1045L278.164 86.3226L278.166 86.3263L278.614 86.1045ZM279.405 78.6631L279.051 78.3095L279.05 78.3113L279.405 78.6631ZM283.917 76.8027L283.975 77.2993L284.417 77.2476V76.8027H283.917ZM283.917 74.9131V74.4131H283.417V74.9131H283.917ZM286.641 74.9131H287.141V74.4131H286.641V74.9131ZM286.641 76.8027H286.141V77.2427L286.578 77.2987L286.641 76.8027ZM290.743 78.6484L290.373 78.9853L290.375 78.9871L290.743 78.6484ZM292.047 83.3633H286.129V84.3633H292.047V83.3633ZM286.629 83.8633V82.8818H285.629V83.8633H286.629ZM286.629 82.8818C286.629 82.3504 286.611 81.9002 286.575 81.5357C286.54 81.1822 286.483 80.8689 286.384 80.6358L285.463 81.0263C285.501 81.1155 285.547 81.3051 285.58 81.6352C285.612 81.9543 285.629 82.3684 285.629 82.8818H286.629ZM286.384 80.6358C286.274 80.3766 286.092 80.1677 285.842 80.0304C285.601 79.8977 285.326 79.8477 285.045 79.8477V80.8477C285.213 80.8477 285.309 80.8782 285.36 80.9066C285.404 80.9305 285.437 80.9632 285.463 81.0263L286.384 80.6358ZM285.045 79.8477C284.528 79.8477 284.091 80.0633 283.806 80.4984L284.643 81.0465C284.729 80.9152 284.838 80.8477 285.045 80.8477V79.8477ZM283.804 80.5021C283.551 80.8952 283.461 81.4255 283.461 82.0176H284.461C284.461 81.4964 284.546 81.1966 284.645 81.0428L283.804 80.5021ZM283.461 82.0176C283.461 82.9842 283.649 83.8043 284.164 84.3194L284.871 83.6123C284.644 83.3851 284.461 82.9065 284.461 82.0176H283.461ZM284.159 84.3146C284.379 84.5407 284.775 84.8392 285.306 85.1998C285.848 85.5678 286.564 86.0219 287.451 86.5611L287.97 85.7065C287.09 85.1715 286.39 84.7271 285.868 84.3725C285.334 84.0104 285.017 83.7621 284.876 83.617L284.159 84.3146ZM287.452 86.5618C288.956 87.47 289.945 88.1474 290.454 88.6015L291.12 87.8555C290.535 87.3331 289.473 86.614 287.969 85.7058L287.452 86.5618ZM290.458 88.6048C290.931 89.0194 291.352 89.6318 291.702 90.472L292.625 90.0866C292.234 89.1494 291.736 88.3947 291.116 87.8522L290.458 88.6048ZM291.705 90.4781C292.051 91.2754 292.235 92.3011 292.235 93.5752H293.235C293.235 92.2126 293.039 91.041 292.623 90.0805L291.705 90.4781ZM292.235 93.5752C292.235 95.6069 291.747 97.134 290.83 98.2182L291.593 98.8638C292.708 97.5456 293.235 95.7622 293.235 93.5752H292.235ZM290.83 98.2182C289.915 99.2997 288.52 100.001 286.572 100.272L286.71 101.263C288.826 100.968 290.477 100.185 291.593 98.8638L290.83 98.2182ZM286.141 100.768V102.994H287.141V100.768H286.141ZM286.641 102.494H283.917V103.494H286.641V102.494ZM284.417 102.994V100.694H283.417V102.994H284.417ZM283.966 100.197C282.489 100.051 281.206 99.4888 280.104 98.5049L279.438 99.251C280.699 100.376 282.181 101.025 283.868 101.192L283.966 100.197ZM280.106 98.5064C279.082 97.5837 278.499 95.911 278.499 93.3262H277.499C277.499 96.0148 278.098 98.0433 279.437 99.2494L280.106 98.5064ZM278.499 93.3262V92.1689H277.499V93.3262H278.499ZM277.999 92.6689H283.917V91.6689H277.999V92.6689ZM283.417 92.1689V93.6191H284.417V92.1689H283.417ZM283.417 93.6191C283.417 94.4198 283.431 95.0764 283.462 95.5859C283.491 96.0808 283.536 96.4792 283.614 96.7364L284.571 96.4491C284.531 96.3157 284.489 96.0232 284.46 95.5269C284.431 95.0451 284.417 94.4103 284.417 93.6191H283.417ZM283.618 96.7509C283.713 97.0344 283.883 97.2773 284.142 97.4425C284.393 97.6034 284.687 97.6641 284.986 97.6641V96.6641C284.817 96.6641 284.727 96.6295 284.68 96.6C284.641 96.5747 284.599 96.532 284.567 96.4347L283.618 96.7509ZM284.986 97.6641C285.506 97.6641 285.971 97.4856 286.281 97.0662L285.478 96.4709C285.398 96.5789 285.267 96.6641 284.986 96.6641V97.6641ZM286.287 97.0592C286.568 96.6651 286.673 96.1439 286.673 95.5674H285.673C285.673 96.0456 285.582 96.3252 285.473 96.4779L286.287 97.0592ZM286.673 95.5674C286.673 94.2351 286.582 93.2181 286.369 92.5699L285.419 92.8812C285.578 93.3659 285.673 94.2434 285.673 95.5674H286.673ZM286.37 92.5723C286.244 92.1798 285.98 91.8128 285.63 91.4684C285.278 91.1215 284.815 90.7747 284.254 90.4259L283.726 91.2752C284.249 91.6003 284.646 91.9029 284.928 92.181C285.213 92.4616 285.359 92.6952 285.418 92.8789L286.37 92.5723ZM284.256 90.427C282.448 89.2935 281.241 88.4776 280.612 87.9711L279.985 88.7496C280.665 89.2978 281.919 90.142 283.724 91.2742L284.256 90.427ZM280.619 87.9762C280.041 87.4945 279.518 86.8042 279.062 85.8827L278.166 86.3263C278.667 87.3384 279.267 88.152 279.978 88.7445L280.619 87.9762ZM279.064 85.8864C278.632 84.9963 278.411 83.9787 278.411 82.8232H277.411C277.411 84.1092 277.658 85.2791 278.164 86.3226L279.064 85.8864ZM278.411 82.8232C278.411 81.1529 278.879 79.9052 279.76 79.0149L279.05 78.3113C277.939 79.4327 277.411 80.9585 277.411 82.8232H278.411ZM279.759 79.0166C280.658 78.1176 282.039 77.526 283.975 77.2993L283.859 76.3061C281.79 76.5483 280.164 77.1968 279.051 78.3095L279.759 79.0166ZM284.417 76.8027V74.9131H283.417V76.8027H284.417ZM283.917 75.4131H286.641V74.4131H283.917V75.4131ZM286.141 74.9131V76.8027H287.141V74.9131H286.141ZM286.578 77.2987C288.329 77.5235 289.57 78.1043 290.373 78.9853L291.112 78.3116C290.099 77.2004 288.606 76.5507 286.705 76.3068L286.578 77.2987ZM290.375 78.9871C291.175 79.8559 291.605 81.0882 291.605 82.75H292.605C292.605 80.9157 292.127 79.4137 291.111 78.3098L290.375 78.9871ZM291.605 82.75C291.605 82.9737 291.587 83.3287 291.548 83.8242L292.545 83.9024C292.584 83.4018 292.605 83.0146 292.605 82.75H291.605Z" fill="black"/>
<path d="M311.88 64.285H341.81" stroke="#090000" stroke-miterlimit="10"/>
<path d="M311.88 72.7151H332.27" stroke="#090000" stroke-miterlimit="10"/>
<path d="M311.88 82.7151H341.81" stroke="#090000" stroke-miterlimit="10"/>
<path d="M311.88 92.7151H337.15" stroke="#090000" stroke-miterlimit="10"/>
<path d="M311.88 102.715H341.81" stroke="#090000" stroke-miterlimit="10"/>
<path d="M311.88 112.715H322.08" stroke="#090000" stroke-miterlimit="10"/>
<path d="M372.333 404.461C372.333 404.129 372.324 403.797 372.316 403.466C372.316 403.275 372.316 403.084 372.3 402.893C372.283 402.487 372.25 402.072 372.225 401.666C372.217 401.558 372.217 401.45 372.2 401.343C372.159 400.828 372.101 400.314 372.034 399.808V399.783C372.026 399.725 372.009 399.667 372.001 399.609C371.935 399.128 371.86 398.647 371.769 398.166C371.736 397.984 371.694 397.81 371.661 397.627C371.586 397.262 371.512 396.906 371.429 396.549C371.379 396.35 371.329 396.151 371.288 395.952C371.205 395.612 371.114 395.272 371.014 394.94C370.956 394.749 370.906 394.55 370.848 394.36C370.74 394.003 370.624 393.655 370.5 393.298C370.458 393.174 370.425 393.049 370.376 392.925C370.359 392.883 370.342 392.842 370.326 392.809C370.21 392.477 370.077 392.145 369.944 391.822C369.886 391.673 369.836 391.523 369.77 391.382C369.579 390.91 369.372 390.445 369.156 389.989C369.132 389.931 369.098 389.873 369.073 389.815C368.883 389.417 368.684 389.019 368.476 388.629C368.393 388.48 368.31 388.33 368.228 388.173C368.07 387.882 367.904 387.592 367.738 387.31C367.713 387.269 367.688 387.219 367.664 387.178C367.606 387.086 367.539 386.995 367.481 386.896C367.266 386.547 367.042 386.199 366.818 385.859C366.718 385.71 366.61 385.552 366.511 385.403C366.27 385.054 366.022 384.723 365.773 384.383C365.706 384.3 365.648 384.209 365.582 384.126C365.557 384.092 365.532 384.059 365.499 384.026C365.308 383.786 365.118 383.553 364.927 383.321C364.811 383.18 364.686 383.031 364.57 382.89C364.338 382.624 364.097 382.367 363.865 382.11C363.782 382.019 363.699 381.92 363.608 381.828L363.583 381.803C363.484 381.704 363.384 381.604 363.276 381.497C363.053 381.273 362.829 381.049 362.605 380.825C362.472 380.7 362.339 380.584 362.207 380.46C362.032 380.294 361.85 380.128 361.676 379.971C361.643 379.946 361.609 379.921 361.585 379.888C361.468 379.788 361.344 379.689 361.228 379.589C361.004 379.398 360.78 379.216 360.548 379.033C360.407 378.926 360.274 378.818 360.133 378.718C360.001 378.619 359.876 378.519 359.743 378.42C359.652 378.353 359.553 378.287 359.461 378.221C359.329 378.121 359.196 378.03 359.055 377.939C358.815 377.773 358.574 377.615 358.325 377.458C358.193 377.375 358.06 377.292 357.927 377.209C357.869 377.176 357.819 377.134 357.761 377.101C357.521 376.952 357.272 376.811 357.015 376.67C356.94 376.628 356.866 376.579 356.783 376.537C356.426 376.338 356.061 376.147 355.688 375.957C355.663 375.948 355.638 375.932 355.613 375.923C355.157 375.691 354.685 375.476 354.212 375.268L347.262 372.274C347.735 372.482 348.199 372.697 348.664 372.93C349.053 373.129 349.443 373.328 349.825 373.543C349.899 373.585 349.974 373.635 350.057 373.676C350.364 373.85 350.671 374.033 350.969 374.215C351.102 374.298 351.235 374.381 351.359 374.464C351.599 374.621 351.848 374.779 352.089 374.945C352.221 375.036 352.362 375.136 352.495 375.227C352.719 375.393 352.951 375.559 353.167 375.724C353.308 375.832 353.449 375.932 353.582 376.04C353.814 376.222 354.038 376.404 354.262 376.595C354.378 376.695 354.502 376.794 354.618 376.894C354.834 377.076 355.041 377.275 355.248 377.466C355.381 377.59 355.514 377.707 355.647 377.831C355.879 378.055 356.103 378.279 356.327 378.511C356.426 378.611 356.526 378.71 356.625 378.81C356.725 378.909 356.816 379.025 356.915 379.125C357.156 379.382 357.388 379.639 357.612 379.896C357.736 380.037 357.853 380.186 357.977 380.336C358.168 380.568 358.367 380.8 358.549 381.04C358.64 381.157 358.732 381.281 358.815 381.397C359.072 381.729 359.312 382.069 359.553 382.417C359.661 382.566 359.76 382.716 359.86 382.873C360.092 383.213 360.307 383.562 360.523 383.91C360.606 384.051 360.697 384.184 360.78 384.325C360.946 384.607 361.104 384.897 361.269 385.187C361.352 385.336 361.444 385.494 361.527 385.643C361.734 386.033 361.925 386.423 362.115 386.821C362.14 386.879 362.173 386.937 362.207 387.003C362.422 387.46 362.63 387.924 362.82 388.397C362.878 388.546 362.936 388.695 362.994 388.836C363.127 389.16 363.252 389.491 363.376 389.823C363.434 389.989 363.484 390.155 363.542 390.312C363.658 390.661 363.782 391.017 363.89 391.374C363.948 391.565 364.006 391.755 364.056 391.954C364.156 392.295 364.247 392.626 364.33 392.966C364.379 393.165 364.429 393.364 364.479 393.563C364.562 393.92 364.637 394.285 364.711 394.642C364.744 394.824 364.786 394.998 364.819 395.181C364.902 395.662 364.985 396.143 365.051 396.624C365.06 396.69 365.076 396.756 365.084 396.814C365.151 397.32 365.209 397.834 365.25 398.349C365.259 398.456 365.267 398.564 365.275 398.672C365.308 399.078 365.333 399.485 365.35 399.9C365.35 400.09 365.35 400.281 365.366 400.472C365.375 400.803 365.383 401.135 365.383 401.467C365.383 401.683 365.375 401.898 365.366 402.114C365.366 402.421 365.358 402.736 365.341 403.043C365.341 403.2 365.317 403.366 365.308 403.532C365.283 403.972 365.25 404.411 365.209 404.859C365.192 405.058 365.167 405.265 365.142 405.473C365.093 405.887 365.043 406.31 364.977 406.725C364.943 406.932 364.919 407.131 364.885 407.339C364.844 407.604 364.786 407.869 364.736 408.143C364.686 408.4 364.637 408.657 364.587 408.914C364.529 409.18 364.471 409.453 364.404 409.719C364.346 409.968 364.288 410.208 364.23 410.457C364.073 411.062 363.907 411.676 363.716 412.281C363.575 412.738 363.417 413.194 363.26 413.642C363.202 413.807 363.144 413.973 363.086 414.139C362.936 414.546 362.779 414.952 362.613 415.35C362.58 415.441 362.538 415.532 362.505 415.624C362.306 416.105 362.099 416.577 361.875 417.042C361.817 417.166 361.75 417.299 361.692 417.423C361.527 417.772 361.352 418.112 361.178 418.452C361.104 418.601 361.029 418.742 360.946 418.883C360.755 419.231 360.564 419.58 360.365 419.92C360.307 420.019 360.249 420.127 360.191 420.235C359.934 420.674 359.669 421.106 359.387 421.529C359.32 421.628 359.262 421.719 359.196 421.811C358.98 422.134 358.757 422.457 358.533 422.781C358.425 422.93 358.317 423.079 358.209 423.22C358.01 423.494 357.803 423.768 357.595 424.033C357.488 424.174 357.372 424.315 357.264 424.464C357.056 424.721 356.849 424.979 356.633 425.227C356.509 425.377 356.376 425.534 356.252 425.683C356.011 425.957 355.771 426.223 355.53 426.488C355.423 426.604 355.315 426.72 355.207 426.836C355.033 427.019 354.85 427.201 354.668 427.384C354.461 427.591 354.262 427.798 354.046 428.006C353.863 428.18 353.673 428.354 353.482 428.52C353.266 428.719 353.059 428.918 352.843 429.109C352.736 429.2 352.619 429.291 352.512 429.391C352.147 429.706 351.774 430.013 351.4 430.311C351.234 430.436 351.069 430.568 350.911 430.693C350.571 430.95 350.231 431.199 349.883 431.447C349.709 431.572 349.534 431.696 349.36 431.812C349.095 431.995 348.821 432.161 348.556 432.335C348.357 432.459 348.158 432.592 347.959 432.708C347.677 432.882 347.386 433.04 347.096 433.206C346.905 433.313 346.715 433.429 346.524 433.529C346.209 433.703 345.885 433.861 345.57 434.018C345.404 434.101 345.23 434.192 345.064 434.275C344.633 434.483 344.202 434.673 343.762 434.864C343.696 434.889 343.63 434.922 343.563 434.955C343.057 435.171 342.551 435.362 342.037 435.553C341.88 435.611 341.722 435.66 341.556 435.71C341.2 435.835 340.843 435.951 340.486 436.067C340.287 436.125 340.08 436.183 339.881 436.241C339.557 436.332 339.242 436.423 338.919 436.506C338.703 436.564 338.479 436.606 338.255 436.656C337.949 436.722 337.642 436.797 337.327 436.855C337.094 436.896 336.862 436.938 336.63 436.979C336.323 437.029 336.025 437.079 335.718 437.12C335.485 437.153 335.245 437.178 335.004 437.211C334.698 437.244 334.399 437.278 334.092 437.302C333.852 437.319 333.611 437.344 333.379 437.352C333.072 437.369 332.765 437.385 332.467 437.394C332.226 437.394 331.986 437.41 331.745 437.41C331.438 437.41 331.131 437.41 330.816 437.402C330.576 437.402 330.344 437.394 330.103 437.377C329.788 437.361 329.473 437.336 329.158 437.311C328.925 437.294 328.693 437.278 328.469 437.253C328.138 437.22 327.814 437.17 327.482 437.12C327.267 437.087 327.051 437.062 326.836 437.029C326.471 436.971 326.106 436.896 325.741 436.821C325.558 436.788 325.376 436.755 325.202 436.714C324.654 436.589 324.115 436.457 323.576 436.299C322.374 435.959 321.221 435.544 320.101 435.055L327.051 438.049C328.171 438.53 329.324 438.945 330.526 439.293C331.065 439.45 331.612 439.583 332.152 439.708C332.334 439.749 332.508 439.782 332.691 439.815C333.056 439.89 333.42 439.965 333.785 440.023C334.001 440.056 334.217 440.081 334.432 440.114C334.764 440.164 335.087 440.205 335.419 440.247C335.651 440.271 335.884 440.288 336.107 440.305C336.423 440.33 336.738 440.354 337.053 440.371C337.293 440.379 337.526 440.388 337.766 440.396C338.073 440.396 338.388 440.412 338.695 440.404C338.935 440.404 339.176 440.404 339.408 440.388C339.715 440.379 340.022 440.363 340.329 440.346C340.569 440.33 340.81 440.313 341.042 440.296C341.349 440.271 341.647 440.238 341.954 440.205C342.186 440.18 342.427 440.147 342.659 440.114C342.966 440.072 343.273 440.023 343.571 439.973C343.804 439.931 344.036 439.898 344.26 439.849C344.567 439.79 344.882 439.716 345.189 439.649C345.413 439.6 345.628 439.55 345.852 439.5C346.176 439.417 346.491 439.326 346.814 439.235C347.013 439.177 347.221 439.127 347.42 439.061C347.776 438.953 348.133 438.828 348.489 438.704C348.647 438.646 348.813 438.596 348.97 438.546C349.485 438.364 349.99 438.165 350.496 437.949C350.563 437.924 350.621 437.891 350.687 437.866C351.127 437.676 351.558 437.485 351.989 437.278C352.163 437.195 352.329 437.103 352.503 437.02C352.827 436.863 353.142 436.697 353.457 436.531C353.648 436.423 353.839 436.316 354.038 436.208C354.328 436.042 354.61 435.884 354.892 435.71C355.091 435.586 355.29 435.461 355.489 435.337C355.763 435.163 356.028 434.997 356.293 434.814C356.368 434.765 356.443 434.723 356.517 434.673C356.617 434.599 356.716 434.524 356.824 434.45C357.173 434.209 357.513 433.952 357.853 433.695C358.018 433.57 358.184 433.446 358.342 433.313C358.723 433.015 359.088 432.708 359.453 432.393C359.536 432.318 359.627 432.252 359.71 432.177C359.735 432.152 359.76 432.136 359.785 432.111C360.001 431.92 360.208 431.721 360.424 431.53C360.614 431.356 360.805 431.19 360.987 431.008C361.195 430.809 361.402 430.593 361.609 430.386C361.767 430.22 361.933 430.071 362.09 429.905C362.107 429.888 362.124 429.863 362.14 429.847C362.248 429.731 362.356 429.606 362.464 429.49C362.704 429.225 362.945 428.968 363.185 428.694C363.318 428.545 363.442 428.387 363.575 428.238C363.724 428.064 363.874 427.89 364.015 427.715C364.081 427.641 364.139 427.558 364.197 427.483C364.313 427.342 364.421 427.201 364.529 427.052C364.736 426.787 364.935 426.513 365.134 426.239C365.242 426.09 365.35 425.941 365.458 425.791C365.516 425.708 365.582 425.625 365.64 425.543C365.806 425.31 365.963 425.061 366.121 424.821C366.187 424.721 366.245 424.63 366.312 424.539C366.569 424.149 366.809 423.751 367.05 423.345C367.066 423.312 367.091 423.278 367.108 423.245C367.166 423.146 367.224 423.038 367.29 422.93C367.489 422.59 367.68 422.242 367.863 421.893C367.937 421.744 368.02 421.603 368.095 421.454C368.161 421.329 368.228 421.205 368.294 421.072C368.402 420.857 368.501 420.641 368.609 420.426C368.667 420.301 368.733 420.168 368.791 420.044C368.999 419.596 369.206 419.148 369.397 418.684C369.405 418.667 369.413 418.642 369.422 418.618C369.463 418.526 369.496 418.435 369.53 418.344C369.695 417.946 369.845 417.548 369.994 417.141C370.052 416.975 370.11 416.81 370.168 416.644C370.235 416.461 370.301 416.287 370.359 416.105C370.45 415.831 370.541 415.557 370.624 415.284C370.815 414.678 370.981 414.065 371.139 413.459C371.155 413.401 371.172 413.335 371.188 413.277C371.238 413.094 371.271 412.912 371.313 412.729C371.379 412.464 371.437 412.19 371.495 411.925C371.553 411.668 371.595 411.411 371.644 411.154C371.694 410.888 371.744 410.615 371.794 410.349C371.81 410.274 371.827 410.192 371.835 410.117C371.852 409.993 371.868 409.86 371.885 409.735C371.951 409.321 372.001 408.898 372.051 408.483C372.076 408.276 372.101 408.077 372.117 407.869C372.159 407.43 372.192 406.982 372.217 406.542C372.217 406.426 372.242 406.302 372.242 406.186C372.242 406.144 372.242 406.103 372.242 406.061C372.258 405.746 372.258 405.439 372.266 405.133C372.266 404.917 372.283 404.701 372.283 404.486L372.333 404.461Z" fill="#1DA2B4" stroke="#090000" stroke-miterlimit="10"/>
<path d="M343.82 371.055C360.399 375.807 369.314 394.26 363.732 412.265C358.151 430.278 340.188 441.026 323.609 436.266C307.031 431.514 298.116 413.061 303.705 395.048C309.287 377.043 327.25 366.295 343.828 371.047L343.82 371.055Z" fill="white" stroke="#090000" stroke-miterlimit="10"/>
<path d="M343.77 400.357L336.785 397.636L337.236 396.478C337.717 395.245 337.95 394.406 337.937 393.963C337.924 393.52 337.652 393.195 337.122 392.989C336.696 392.822 336.308 392.864 335.959 393.113C335.625 393.355 335.331 393.804 335.075 394.461C334.648 395.556 334.569 396.408 334.836 397.017C335.092 397.621 336.016 398.963 337.609 401.044C338.966 402.807 339.855 404.102 340.276 404.93C340.702 405.746 340.929 406.764 340.959 407.984C341.004 409.196 340.724 410.58 340.118 412.137C339.148 414.626 337.787 416.346 336.036 417.297C334.285 418.248 332.146 418.424 329.619 417.824L328.595 420.452L325.379 419.199L326.436 416.485C324.641 415.573 323.288 414.223 322.379 412.435C321.473 410.635 321.627 408.18 322.839 405.068L323.371 403.702L330.356 406.422L329.689 408.134C328.957 410.013 328.571 411.21 328.53 411.725C328.504 412.233 328.768 412.594 329.322 412.81C329.794 412.994 330.206 412.975 330.558 412.754C330.914 412.521 331.214 412.093 331.456 411.471C332.067 409.903 332.393 408.742 332.434 407.989C332.48 407.223 332.018 406.194 331.049 404.9C329.437 402.732 328.366 401.187 327.837 400.264C327.323 399.334 327.006 398.188 326.885 396.827C326.777 395.47 327.003 394.071 327.564 392.631C328.377 390.544 329.602 389.137 331.24 388.407C332.89 387.683 334.95 387.642 337.421 388.286L338.289 386.056L341.505 387.308L340.636 389.539C342.684 390.655 344.015 392.01 344.629 393.603C345.247 395.184 345.155 397.007 344.351 399.07C344.239 399.358 344.045 399.787 343.77 400.357Z" fill="#1DA2B4"/>
<path d="M343.77 400.357L343.589 400.823L344.019 400.991L344.22 400.575L343.77 400.357ZM336.785 397.636L336.319 397.455L336.138 397.921L336.604 398.102L336.785 397.636ZM335.959 393.113L335.668 392.706L335.665 392.708L335.959 393.113ZM334.836 397.017L335.297 396.822L335.294 396.815L334.836 397.017ZM337.609 401.044L337.212 401.347L337.212 401.349L337.609 401.044ZM340.276 404.93L339.831 405.157L339.833 405.161L340.276 404.93ZM340.959 407.984L340.459 407.996L340.459 408.003L340.959 407.984ZM336.036 417.297L336.275 417.737L336.036 417.297ZM329.619 417.824L329.734 417.337L329.311 417.237L329.153 417.642L329.619 417.824ZM328.595 420.452L328.413 420.918L328.879 421.099L329.061 420.633L328.595 420.452ZM325.379 419.199L324.913 419.018L324.732 419.484L325.198 419.665L325.379 419.199ZM326.436 416.485L326.902 416.666L327.067 416.244L326.663 416.039L326.436 416.485ZM322.379 412.435L321.932 412.66L321.933 412.662L322.379 412.435ZM323.371 403.702L323.553 403.236L323.087 403.054L322.905 403.52L323.371 403.702ZM330.356 406.422L330.822 406.604L331.003 406.138L330.537 405.957L330.356 406.422ZM328.53 411.725L328.031 411.685L328.031 411.692L328.03 411.7L328.53 411.725ZM330.558 412.754L330.824 413.177L330.832 413.172L330.558 412.754ZM332.434 407.989L331.935 407.959L331.935 407.961L332.434 407.989ZM331.049 404.9L330.647 405.198L330.648 405.2L331.049 404.9ZM327.837 400.264L327.399 400.506L327.403 400.513L327.837 400.264ZM326.885 396.827L326.387 396.867L326.387 396.871L326.885 396.827ZM331.24 388.407L331.039 387.95L331.037 387.951L331.24 388.407ZM337.421 388.286L337.295 388.77L337.725 388.882L337.887 388.467L337.421 388.286ZM338.289 386.056L338.471 385.59L338.005 385.408L337.824 385.874L338.289 386.056ZM341.505 387.308L341.971 387.49L342.153 387.024L341.687 386.842L341.505 387.308ZM340.636 389.539L340.171 389.357L340.011 389.767L340.397 389.978L340.636 389.539ZM344.629 393.603L344.162 393.783L344.163 393.785L344.629 393.603ZM343.952 399.891L336.967 397.17L336.604 398.102L343.589 400.823L343.952 399.891ZM337.251 397.818L337.702 396.659L336.771 396.297L336.319 397.455L337.251 397.818ZM337.702 396.659C337.946 396.034 338.131 395.5 338.254 395.059C338.374 394.628 338.446 394.248 338.437 393.948L337.437 393.978C337.442 394.122 337.404 394.382 337.29 394.79C337.18 395.187 337.007 395.688 336.771 396.297L337.702 396.659ZM338.437 393.948C338.427 393.62 338.318 393.319 338.107 393.066C337.902 392.821 337.621 392.646 337.304 392.523L336.941 393.454C337.153 393.537 337.274 393.628 337.34 393.708C337.4 393.78 337.434 393.863 337.437 393.978L338.437 393.948ZM337.304 392.523C336.733 392.3 336.166 392.351 335.668 392.706L336.249 393.52C336.45 393.376 336.659 393.345 336.941 393.454L337.304 392.523ZM335.665 392.708C335.217 393.034 334.878 393.59 334.609 394.28L335.541 394.643C335.784 394.019 336.034 393.676 336.252 393.517L335.665 392.708ZM334.609 394.28C334.168 395.411 334.029 396.423 334.378 397.218L335.294 396.815C335.109 396.393 335.128 395.701 335.541 394.643L334.609 394.28ZM334.376 397.212C334.526 397.566 334.848 398.09 335.309 398.76C335.778 399.441 336.413 400.304 337.212 401.347L338.006 400.74C337.212 399.703 336.588 398.854 336.133 398.193C335.67 397.521 335.403 397.072 335.297 396.822L334.376 397.212ZM337.212 401.349C338.57 403.112 339.433 404.375 339.831 405.157L340.722 404.704C340.278 403.83 339.362 402.502 338.005 400.739L337.212 401.349ZM339.833 405.161C340.213 405.891 340.431 406.829 340.459 407.996L341.458 407.972C341.428 406.7 341.19 405.601 340.72 404.699L339.833 405.161ZM340.459 408.003C340.501 409.126 340.242 410.44 339.652 411.955L340.584 412.318C341.206 410.721 341.507 409.266 341.458 407.965L340.459 408.003ZM339.652 411.955C338.71 414.372 337.414 415.98 335.798 416.858L336.275 417.737C338.161 416.713 339.586 414.88 340.584 412.318L339.652 411.955ZM335.798 416.858C334.185 417.734 332.179 417.918 329.734 417.337L329.503 418.31C332.113 418.93 334.386 418.762 336.275 417.737L335.798 416.858ZM329.153 417.642L328.129 420.27L329.061 420.633L330.084 418.005L329.153 417.642ZM328.776 419.986L325.561 418.733L325.198 419.665L328.413 420.918L328.776 419.986ZM325.845 419.381L326.902 416.666L325.97 416.303L324.913 419.018L325.845 419.381ZM326.663 416.039C324.961 415.175 323.686 413.902 322.824 412.208L321.933 412.662C322.891 414.545 324.321 415.971 326.21 416.931L326.663 416.039ZM322.825 412.21C322.015 410.6 322.112 408.313 323.305 405.249L322.373 404.886C321.142 408.046 320.932 410.671 321.932 412.66L322.825 412.21ZM323.305 405.249L323.837 403.883L322.905 403.52L322.373 404.886L323.305 405.249ZM323.19 404.168L330.174 406.888L330.537 405.957L323.553 403.236L323.19 404.168ZM329.89 406.241L329.223 407.953L330.155 408.316L330.822 406.604L329.89 406.241ZM329.223 407.953C328.856 408.896 328.572 409.676 328.375 410.287C328.182 410.885 328.057 411.363 328.031 411.685L329.028 411.765C329.043 411.572 329.133 411.194 329.326 410.595C329.515 410.009 329.791 409.251 330.155 408.316L329.223 407.953ZM328.03 411.7C328.013 412.052 328.096 412.386 328.305 412.672C328.509 412.951 328.803 413.144 329.14 413.276L329.503 412.344C329.287 412.26 329.173 412.164 329.112 412.082C329.057 412.006 329.021 411.905 329.029 411.75L328.03 411.7ZM329.14 413.276C329.724 413.503 330.309 413.502 330.824 413.177L330.292 412.331C330.104 412.449 329.864 412.485 329.503 412.344L329.14 413.276ZM330.832 413.172C331.312 412.858 331.662 412.32 331.922 411.652L330.99 411.289C330.766 411.866 330.517 412.184 330.284 412.335L330.832 413.172ZM331.922 411.652C332.534 410.081 332.887 408.856 332.933 408.016L331.935 407.961C331.898 408.629 331.599 409.726 330.99 411.289L331.922 411.652ZM332.933 408.019C332.963 407.526 332.828 406.994 332.578 406.438C332.327 405.878 331.947 405.265 331.449 404.6L330.648 405.2C331.12 405.829 331.455 406.377 331.666 406.847C331.878 407.32 331.951 407.686 331.935 407.959L332.933 408.019ZM331.45 404.602C329.838 402.433 328.783 400.909 328.27 400.015L327.403 400.513C327.949 401.465 329.036 403.032 330.647 405.198L331.45 404.602ZM328.274 400.022C327.802 399.168 327.499 398.093 327.383 396.783L326.387 396.871C326.512 398.282 326.843 399.5 327.399 400.506L328.274 400.022ZM327.384 396.787C327.282 395.515 327.492 394.192 328.03 392.812L327.098 392.449C326.513 393.951 326.271 395.425 326.387 396.867L327.384 396.787ZM328.03 392.812C328.807 390.816 329.954 389.527 331.444 388.864L331.037 387.951C329.25 388.746 327.946 390.272 327.098 392.449L328.03 392.812ZM331.441 388.865C332.953 388.201 334.888 388.143 337.295 388.77L337.547 387.802C335.012 387.142 332.827 387.164 331.039 387.95L331.441 388.865ZM337.887 388.467L338.755 386.237L337.824 385.874L336.955 388.105L337.887 388.467ZM338.108 386.522L341.324 387.774L341.687 386.842L338.471 385.59L338.108 386.522ZM341.039 387.127L340.171 389.357L341.102 389.72L341.971 387.49L341.039 387.127ZM340.397 389.978C342.379 391.058 343.604 392.335 344.162 393.783L345.095 393.423C344.425 391.684 342.989 390.252 340.876 389.1L340.397 389.978ZM344.163 393.785C344.723 395.218 344.658 396.906 343.885 398.889L344.817 399.252C345.652 397.108 345.771 395.151 345.095 393.421L344.163 393.785ZM343.885 398.889C343.78 399.158 343.594 399.572 343.32 400.14L344.22 400.575C344.497 400.002 344.697 399.559 344.817 399.252L343.885 398.889Z" fill="black"/>
<path d="M350.762 374.049C367.34 378.801 376.255 397.254 370.666 415.267C365.084 433.28 347.121 444.028 330.542 439.268C328.469 438.671 326.52 437.866 324.696 436.871" stroke="black" stroke-width="0.25" stroke-miterlimit="10"/>
<path d="M362.327 416.005C369.805 398.675 363.049 379.094 347.236 372.271C331.423 365.448 312.542 373.966 305.064 391.297C297.586 408.628 304.343 428.208 320.155 435.031C335.968 441.854 354.849 433.336 362.327 416.005Z" stroke="black" stroke-width="0.25" stroke-miterlimit="10"/>
<path d="M343.82 371.047L350.77 374.041C367.348 378.793 376.264 397.246 370.674 415.259L363.724 412.265C369.305 394.252 360.39 375.799 343.82 371.047Z" stroke="black" stroke-miterlimit="10"/>
<path d="M357.587 379.846L364.537 382.84" stroke="black" stroke-miterlimit="10"/>
<path d="M364.505 394.749L371.455 397.743" stroke="black" stroke-miterlimit="10"/>
<path d="M363.724 412.265L370.674 415.259C365.092 433.272 347.129 444.02 330.551 439.26L323.601 436.266C340.179 441.018 358.143 430.27 363.724 412.265Z" stroke="black" stroke-miterlimit="10"/>
<path d="M354.527 427.549L361.476 430.543" stroke="black" stroke-miterlimit="10"/>
<path d="M340.129 436.158L347.079 439.16" stroke="black" stroke-miterlimit="10"/>
<path d="M347.287 372.291L354.236 375.285C368.551 381.463 375.849 398.556 370.674 415.259C365.092 433.272 347.129 444.02 330.551 439.26C329.356 438.92 328.195 438.505 327.076 438.016L320.126 435.022C321.246 435.503 322.398 435.917 323.601 436.266C340.179 441.018 358.143 430.27 363.724 412.265C368.899 395.554 361.609 378.47 347.287 372.291Z" stroke="black" stroke-width="0.25" stroke-miterlimit="10"/>
<path d="M343.82 371.047L350.77 374.041C367.348 378.793 376.264 397.246 370.674 415.259L363.724 412.265C369.305 394.252 360.39 375.799 343.82 371.047Z" stroke="black" stroke-width="0.25" stroke-miterlimit="10"/>
<path d="M354.236 375.285C353.117 374.804 351.964 374.389 350.762 374.041L343.812 371.047C345.006 371.387 346.167 371.802 347.287 372.291C349.368 373.187 352.147 374.389 354.236 375.285Z" stroke="black" stroke-width="0.25" stroke-miterlimit="10"/>
<path d="M343.77 400.357L336.785 397.636L337.236 396.478C337.717 395.245 337.95 394.406 337.937 393.963C337.924 393.52 337.652 393.195 337.122 392.989C336.696 392.822 336.308 392.864 335.959 393.113C335.625 393.355 335.331 393.804 335.075 394.461C334.648 395.556 334.569 396.408 334.836 397.017C335.092 397.621 336.016 398.963 337.609 401.044C338.966 402.807 339.855 404.102 340.276 404.93C340.702 405.746 340.929 406.764 340.959 407.984C341.004 409.196 340.724 410.58 340.118 412.137C339.148 414.626 337.787 416.346 336.036 417.297C334.285 418.248 332.146 418.424 329.619 417.824L328.595 420.452L325.379 419.199L326.436 416.485C324.641 415.573 323.288 414.223 322.379 412.435C321.473 410.635 321.627 408.18 322.839 405.068L323.371 403.702L330.356 406.422L329.689 408.134C328.957 410.013 328.571 411.21 328.53 411.725C328.504 412.233 328.768 412.594 329.322 412.81C329.794 412.994 330.206 412.975 330.558 412.754C330.914 412.521 331.214 412.093 331.456 411.471C332.067 409.903 332.393 408.742 332.434 407.989C332.48 407.223 332.018 406.194 331.049 404.9C329.437 402.732 328.366 401.187 327.837 400.264C327.323 399.334 327.006 398.188 326.885 396.827C326.777 395.47 327.003 394.071 327.564 392.631C328.377 390.544 329.602 389.137 331.24 388.407C332.89 387.683 334.95 387.642 337.421 388.286L338.289 386.056L341.505 387.308L340.636 389.539C342.684 390.655 344.015 392.01 344.629 393.603C345.247 395.184 345.155 397.007 344.351 399.07C344.239 399.358 344.045 399.787 343.77 400.357Z" fill="#1DA2B4"/>
<path d="M343.77 400.357L343.589 400.823L344.019 400.991L344.22 400.575L343.77 400.357ZM336.785 397.636L336.319 397.455L336.138 397.921L336.604 398.102L336.785 397.636ZM335.959 393.113L335.668 392.706L335.665 392.708L335.959 393.113ZM334.836 397.017L335.297 396.822L335.294 396.815L334.836 397.017ZM337.609 401.044L337.212 401.347L337.212 401.349L337.609 401.044ZM340.276 404.93L339.831 405.157L339.833 405.161L340.276 404.93ZM340.959 407.984L340.459 407.996L340.459 408.003L340.959 407.984ZM336.036 417.297L336.275 417.737L336.036 417.297ZM329.619 417.824L329.734 417.337L329.311 417.237L329.153 417.642L329.619 417.824ZM328.595 420.452L328.413 420.918L328.879 421.099L329.061 420.633L328.595 420.452ZM325.379 419.199L324.913 419.018L324.732 419.484L325.198 419.665L325.379 419.199ZM326.436 416.485L326.902 416.666L327.067 416.244L326.663 416.039L326.436 416.485ZM322.379 412.435L321.932 412.66L321.933 412.662L322.379 412.435ZM323.371 403.702L323.553 403.236L323.087 403.054L322.905 403.52L323.371 403.702ZM330.356 406.422L330.822 406.604L331.003 406.138L330.537 405.957L330.356 406.422ZM328.53 411.725L328.031 411.685L328.031 411.692L328.03 411.7L328.53 411.725ZM330.558 412.754L330.824 413.177L330.832 413.172L330.558 412.754ZM332.434 407.989L331.935 407.959L331.935 407.961L332.434 407.989ZM331.049 404.9L330.647 405.198L330.648 405.2L331.049 404.9ZM327.837 400.264L327.399 400.506L327.403 400.513L327.837 400.264ZM326.885 396.827L326.387 396.867L326.387 396.871L326.885 396.827ZM331.24 388.407L331.039 387.95L331.037 387.951L331.24 388.407ZM337.421 388.286L337.295 388.77L337.725 388.882L337.887 388.467L337.421 388.286ZM338.289 386.056L338.471 385.59L338.005 385.408L337.824 385.874L338.289 386.056ZM341.505 387.308L341.971 387.49L342.153 387.024L341.687 386.842L341.505 387.308ZM340.636 389.539L340.171 389.357L340.011 389.767L340.397 389.978L340.636 389.539ZM344.629 393.603L344.162 393.783L344.163 393.785L344.629 393.603ZM343.952 399.891L336.967 397.17L336.604 398.102L343.589 400.823L343.952 399.891ZM337.251 397.818L337.702 396.659L336.771 396.297L336.319 397.455L337.251 397.818ZM337.702 396.659C337.946 396.034 338.131 395.5 338.254 395.059C338.374 394.628 338.446 394.248 338.437 393.948L337.437 393.978C337.442 394.122 337.404 394.382 337.29 394.79C337.18 395.187 337.007 395.688 336.771 396.297L337.702 396.659ZM338.437 393.948C338.427 393.62 338.318 393.319 338.107 393.066C337.902 392.821 337.621 392.646 337.304 392.523L336.941 393.454C337.153 393.537 337.274 393.628 337.34 393.708C337.4 393.78 337.434 393.863 337.437 393.978L338.437 393.948ZM337.304 392.523C336.733 392.3 336.166 392.351 335.668 392.706L336.249 393.52C336.45 393.376 336.659 393.345 336.941 393.454L337.304 392.523ZM335.665 392.708C335.217 393.034 334.878 393.59 334.609 394.28L335.541 394.643C335.784 394.019 336.034 393.676 336.252 393.517L335.665 392.708ZM334.609 394.28C334.168 395.411 334.029 396.423 334.378 397.218L335.294 396.815C335.109 396.393 335.128 395.701 335.541 394.643L334.609 394.28ZM334.376 397.212C334.526 397.566 334.848 398.09 335.309 398.76C335.778 399.441 336.413 400.304 337.212 401.347L338.006 400.74C337.212 399.703 336.588 398.854 336.133 398.193C335.67 397.521 335.403 397.072 335.297 396.822L334.376 397.212ZM337.212 401.349C338.57 403.112 339.433 404.375 339.831 405.157L340.722 404.704C340.278 403.83 339.362 402.502 338.005 400.739L337.212 401.349ZM339.833 405.161C340.213 405.891 340.431 406.829 340.459 407.996L341.458 407.972C341.428 406.7 341.19 405.601 340.72 404.699L339.833 405.161ZM340.459 408.003C340.501 409.126 340.242 410.44 339.652 411.955L340.584 412.318C341.206 410.721 341.507 409.266 341.458 407.965L340.459 408.003ZM339.652 411.955C338.71 414.372 337.414 415.98 335.798 416.858L336.275 417.737C338.161 416.713 339.586 414.88 340.584 412.318L339.652 411.955ZM335.798 416.858C334.185 417.734 332.179 417.918 329.734 417.337L329.503 418.31C332.113 418.93 334.386 418.762 336.275 417.737L335.798 416.858ZM329.153 417.642L328.129 420.27L329.061 420.633L330.084 418.005L329.153 417.642ZM328.776 419.986L325.561 418.733L325.198 419.665L328.413 420.918L328.776 419.986ZM325.845 419.381L326.902 416.666L325.97 416.303L324.913 419.018L325.845 419.381ZM326.663 416.039C324.961 415.175 323.686 413.902 322.824 412.208L321.933 412.662C322.891 414.545 324.321 415.971 326.21 416.931L326.663 416.039ZM322.825 412.21C322.015 410.6 322.112 408.313 323.305 405.249L322.373 404.886C321.142 408.046 320.932 410.671 321.932 412.66L322.825 412.21ZM323.305 405.249L323.837 403.883L322.905 403.52L322.373 404.886L323.305 405.249ZM323.19 404.168L330.174 406.888L330.537 405.957L323.553 403.236L323.19 404.168ZM329.89 406.241L329.223 407.953L330.155 408.316L330.822 406.604L329.89 406.241ZM329.223 407.953C328.856 408.896 328.572 409.676 328.375 410.287C328.182 410.885 328.057 411.363 328.031 411.685L329.028 411.765C329.043 411.572 329.133 411.194 329.326 410.595C329.515 410.009 329.791 409.251 330.155 408.316L329.223 407.953ZM328.03 411.7C328.013 412.052 328.096 412.386 328.305 412.672C328.509 412.951 328.803 413.144 329.14 413.276L329.503 412.344C329.287 412.26 329.173 412.164 329.112 412.082C329.057 412.006 329.021 411.905 329.029 411.75L328.03 411.7ZM329.14 413.276C329.724 413.503 330.309 413.502 330.824 413.177L330.292 412.331C330.104 412.449 329.864 412.485 329.503 412.344L329.14 413.276ZM330.832 413.172C331.312 412.858 331.662 412.32 331.922 411.652L330.99 411.289C330.766 411.866 330.517 412.184 330.284 412.335L330.832 413.172ZM331.922 411.652C332.534 410.081 332.887 408.856 332.933 408.016L331.935 407.961C331.898 408.629 331.599 409.726 330.99 411.289L331.922 411.652ZM332.933 408.019C332.963 407.526 332.828 406.994 332.578 406.438C332.327 405.878 331.947 405.265 331.449 404.6L330.648 405.2C331.12 405.829 331.455 406.377 331.666 406.847C331.878 407.32 331.951 407.686 331.935 407.959L332.933 408.019ZM331.45 404.602C329.838 402.433 328.783 400.909 328.27 400.015L327.403 400.513C327.949 401.465 329.036 403.032 330.647 405.198L331.45 404.602ZM328.274 400.022C327.802 399.168 327.499 398.093 327.383 396.783L326.387 396.871C326.512 398.282 326.843 399.5 327.399 400.506L328.274 400.022ZM327.384 396.787C327.282 395.515 327.492 394.192 328.03 392.812L327.098 392.449C326.513 393.951 326.271 395.425 326.387 396.867L327.384 396.787ZM328.03 392.812C328.807 390.816 329.954 389.527 331.444 388.864L331.037 387.951C329.25 388.746 327.946 390.272 327.098 392.449L328.03 392.812ZM331.441 388.865C332.953 388.201 334.888 388.143 337.295 388.77L337.547 387.802C335.012 387.142 332.827 387.164 331.039 387.95L331.441 388.865ZM337.887 388.467L338.755 386.237L337.824 385.874L336.955 388.105L337.887 388.467ZM338.108 386.522L341.324 387.774L341.687 386.842L338.471 385.59L338.108 386.522ZM341.039 387.127L340.171 389.357L341.102 389.72L341.971 387.49L341.039 387.127ZM340.397 389.978C342.379 391.058 343.604 392.335 344.162 393.783L345.095 393.423C344.425 391.684 342.989 390.252 340.876 389.1L340.397 389.978ZM344.163 393.785C344.723 395.218 344.658 396.906 343.885 398.889L344.817 399.252C345.652 397.108 345.771 395.151 345.095 393.421L344.163 393.785ZM343.885 398.889C343.78 399.158 343.594 399.572 343.32 400.14L344.22 400.575C344.497 400.002 344.697 399.559 344.817 399.252L343.885 398.889Z" fill="black"/>
<path d="M350.762 374.049C367.34 378.801 376.255 397.254 370.666 415.267C365.084 433.28 347.121 444.028 330.542 439.268C328.469 438.671 326.52 437.866 324.696 436.871" stroke="black" stroke-width="0.25" stroke-miterlimit="10"/>
<path d="M362.327 416.005C369.805 398.675 363.049 379.094 347.236 372.271C331.423 365.448 312.542 373.966 305.064 391.297C297.586 408.628 304.343 428.208 320.155 435.031C335.968 441.854 354.849 433.336 362.327 416.005Z" stroke="black" stroke-width="0.25" stroke-miterlimit="10"/>
<path d="M343.82 371.047L350.77 374.041C367.348 378.793 376.264 397.246 370.674 415.259L363.724 412.265C369.305 394.252 360.39 375.799 343.82 371.047Z" stroke="black" stroke-miterlimit="10"/>
<path d="M357.587 379.846L364.537 382.84" stroke="black" stroke-miterlimit="10"/>
<path d="M364.505 394.749L371.455 397.743" stroke="black" stroke-miterlimit="10"/>
<path d="M363.724 412.265L370.674 415.259C365.092 433.272 347.129 444.02 330.551 439.26L323.601 436.266C340.179 441.018 358.143 430.27 363.724 412.265Z" stroke="black" stroke-miterlimit="10"/>
<path d="M354.527 427.549L361.476 430.543" stroke="black" stroke-miterlimit="10"/>
<path d="M340.129 436.158L347.079 439.16" stroke="black" stroke-miterlimit="10"/>
<path d="M347.287 372.291L354.236 375.285C368.551 381.463 375.849 398.556 370.674 415.259C365.092 433.272 347.129 444.02 330.551 439.26C329.356 438.92 328.195 438.505 327.076 438.016L320.126 435.022C321.246 435.503 322.398 435.917 323.601 436.266C340.179 441.018 358.143 430.27 363.724 412.265C368.899 395.554 361.609 378.47 347.287 372.291Z" stroke="black" stroke-width="0.25" stroke-miterlimit="10"/>
<path d="M343.82 371.047L350.77 374.041C367.348 378.793 376.264 397.246 370.674 415.259L363.724 412.265C369.305 394.252 360.39 375.799 343.82 371.047Z" stroke="black" stroke-width="0.25" stroke-miterlimit="10"/>
<path d="M354.236 375.285C353.117 374.804 351.964 374.389 350.762 374.041L343.812 371.047C345.006 371.387 346.167 371.802 347.287 372.291C349.368 373.187 352.147 374.389 354.236 375.285Z" stroke="black" stroke-width="0.25" stroke-miterlimit="10"/>
<path d="M410.814 122.004C410.814 121.644 410.805 121.284 410.796 120.924C410.796 120.717 410.796 120.51 410.778 120.303C410.76 119.862 410.724 119.412 410.697 118.971C410.688 118.854 410.688 118.737 410.67 118.62C410.625 118.062 410.562 117.504 410.49 116.955V116.928C410.481 116.865 410.463 116.802 410.454 116.739C410.382 116.217 410.301 115.695 410.202 115.173C410.166 114.975 410.121 114.786 410.085 114.588C410.004 114.192 409.923 113.805 409.833 113.418C409.779 113.202 409.725 112.986 409.68 112.77C409.59 112.401 409.491 112.032 409.383 111.672C409.32 111.465 409.266 111.249 409.203 111.042C409.086 110.655 408.96 110.277 408.825 109.89C408.78 109.755 408.744 109.62 408.69 109.485C408.672 109.44 408.654 109.395 408.636 109.359C408.51 108.999 408.366 108.639 408.222 108.288C408.159 108.126 408.105 107.964 408.033 107.811C407.826 107.298 407.601 106.794 407.367 106.299C407.34 106.236 407.304 106.173 407.277 106.11C407.07 105.678 406.854 105.246 406.629 104.823C406.539 104.661 406.449 104.499 406.359 104.328C406.188 104.013 406.008 103.698 405.828 103.392C405.801 103.347 405.774 103.293 405.747 103.248C405.684 103.149 405.612 103.05 405.549 102.942C405.315 102.564 405.072 102.186 404.829 101.817C404.721 101.655 404.604 101.484 404.496 101.322C404.235 100.944 403.965 100.584 403.695 100.215C403.623 100.125 403.56 100.026 403.488 99.9364C403.461 99.9004 403.434 99.8644 403.398 99.8284C403.191 99.5674 402.984 99.3154 402.777 99.0634C402.651 98.9104 402.516 98.7484 402.39 98.5954C402.138 98.3074 401.877 98.0284 401.625 97.7494C401.535 97.6504 401.445 97.5424 401.346 97.4434L401.319 97.4164C401.211 97.3084 401.103 97.2004 400.986 97.0834C400.743 96.8404 400.5 96.5974 400.257 96.3544C400.113 96.2194 399.969 96.0934 399.825 95.9584C399.636 95.7784 399.438 95.5984 399.249 95.4274C399.213 95.4004 399.177 95.3734 399.15 95.3374C399.024 95.2294 398.889 95.1214 398.763 95.0134C398.52 94.8064 398.277 94.6084 398.025 94.4104C397.872 94.2934 397.728 94.1764 397.575 94.0684C397.431 93.9604 397.296 93.8524 397.152 93.7444C397.053 93.6724 396.945 93.6004 396.846 93.5284C396.702 93.4204 396.558 93.3214 396.405 93.2224C396.144 93.0424 395.883 92.8714 395.613 92.7004C395.469 92.6104 395.325 92.5204 395.181 92.4304C395.118 92.3944 395.064 92.3494 395.001 92.3134C394.74 92.1514 394.47 91.9984 394.191 91.8454C394.11 91.8004 394.029 91.7464 393.939 91.7014C393.552 91.4854 393.156 91.2784 392.751 91.0714C392.724 91.0624 392.697 91.0444 392.67 91.0354C392.175 90.7834 391.662 90.5494 391.149 90.3244L383.607 87.0754C384.12 87.3004 384.624 87.5344 385.128 87.7864C385.551 88.0024 385.974 88.2184 386.388 88.4524C386.469 88.4974 386.55 88.5514 386.64 88.5964C386.973 88.7854 387.306 88.9834 387.63 89.1814C387.774 89.2714 387.918 89.3614 388.053 89.4514C388.314 89.6224 388.584 89.7934 388.845 89.9734C388.989 90.0724 389.142 90.1804 389.286 90.2794C389.529 90.4594 389.781 90.6394 390.015 90.8194C390.168 90.9364 390.321 91.0444 390.465 91.1614C390.717 91.3594 390.96 91.5574 391.203 91.7644C391.329 91.8724 391.464 91.9804 391.59 92.0884C391.824 92.2864 392.049 92.5024 392.274 92.7094C392.418 92.8444 392.562 92.9704 392.706 93.1054C392.958 93.3484 393.201 93.5914 393.444 93.8434C393.552 93.9514 393.66 94.0594 393.768 94.1674C393.876 94.2754 393.975 94.4014 394.083 94.5094C394.344 94.7884 394.596 95.0674 394.839 95.3464C394.974 95.4994 395.1 95.6614 395.235 95.8234C395.442 96.0754 395.658 96.3274 395.856 96.5884C395.955 96.7144 396.054 96.8494 396.144 96.9754C396.423 97.3354 396.684 97.7044 396.945 98.0824C397.062 98.2444 397.17 98.4064 397.278 98.5774C397.53 98.9464 397.764 99.3244 397.998 99.7024C398.088 99.8554 398.187 99.9994 398.277 100.152C398.457 100.458 398.628 100.773 398.808 101.088C398.898 101.25 398.997 101.421 399.087 101.583C399.312 102.006 399.519 102.429 399.726 102.861C399.753 102.924 399.789 102.987 399.825 103.059C400.059 103.554 400.284 104.058 400.491 104.571C400.554 104.733 400.617 104.895 400.68 105.048C400.824 105.399 400.959 105.759 401.094 106.119C401.157 106.299 401.211 106.479 401.274 106.65C401.4 107.028 401.535 107.415 401.652 107.802C401.715 108.009 401.778 108.216 401.832 108.432C401.94 108.801 402.039 109.161 402.129 109.53C402.183 109.746 402.237 109.962 402.291 110.178C402.381 110.565 402.462 110.961 402.543 111.348C402.579 111.546 402.624 111.735 402.66 111.933C402.75 112.455 402.84 112.977 402.912 113.499C402.921 113.571 402.939 113.643 402.948 113.706C403.02 114.255 403.083 114.813 403.128 115.371C403.137 115.488 403.146 115.605 403.155 115.722C403.191 116.163 403.218 116.604 403.236 117.054C403.236 117.261 403.236 117.468 403.254 117.675C403.263 118.035 403.272 118.395 403.272 118.755C403.272 118.989 403.263 119.223 403.254 119.457C403.254 119.79 403.245 120.132 403.227 120.465C403.227 120.636 403.2 120.816 403.191 120.996C403.164 121.473 403.128 121.95 403.083 122.436C403.065 122.652 403.038 122.877 403.011 123.102C402.957 123.552 402.903 124.011 402.831 124.461C402.795 124.686 402.768 124.902 402.732 125.127C402.687 125.415 402.624 125.703 402.57 126C402.516 126.279 402.462 126.558 402.408 126.837C402.345 127.125 402.282 127.422 402.21 127.71C402.147 127.98 402.084 128.241 402.021 128.511C401.85 129.168 401.67 129.834 401.463 130.491C401.31 130.986 401.139 131.481 400.968 131.967C400.905 132.147 400.842 132.327 400.779 132.507C400.617 132.948 400.446 133.389 400.266 133.821C400.23 133.92 400.185 134.019 400.149 134.118C399.933 134.64 399.708 135.153 399.465 135.657C399.402 135.792 399.33 135.936 399.267 136.071C399.087 136.449 398.898 136.818 398.709 137.187C398.628 137.349 398.547 137.502 398.457 137.655C398.25 138.033 398.043 138.411 397.827 138.78C397.764 138.888 397.701 139.005 397.638 139.122C397.359 139.599 397.071 140.067 396.765 140.526C396.693 140.634 396.63 140.733 396.558 140.832C396.324 141.183 396.081 141.534 395.838 141.885C395.721 142.047 395.604 142.209 395.487 142.362C395.271 142.659 395.046 142.956 394.821 143.244C394.704 143.397 394.578 143.55 394.461 143.712C394.236 143.991 394.011 144.27 393.777 144.54C393.642 144.702 393.498 144.873 393.363 145.035C393.102 145.332 392.841 145.62 392.58 145.908C392.463 146.034 392.346 146.16 392.229 146.286C392.04 146.484 391.842 146.682 391.644 146.88C391.419 147.105 391.203 147.33 390.969 147.555C390.771 147.744 390.564 147.933 390.357 148.113C390.123 148.329 389.898 148.545 389.664 148.752C389.547 148.851 389.421 148.95 389.304 149.058C388.908 149.4 388.503 149.733 388.098 150.057C387.918 150.192 387.738 150.336 387.567 150.471C387.198 150.75 386.829 151.02 386.451 151.29C386.262 151.425 386.073 151.56 385.884 151.686C385.596 151.884 385.299 152.064 385.011 152.253C384.795 152.388 384.579 152.532 384.363 152.658C384.057 152.847 383.742 153.018 383.427 153.198C383.22 153.315 383.013 153.441 382.806 153.549C382.464 153.738 382.113 153.909 381.771 154.08C381.591 154.17 381.402 154.269 381.222 154.359C380.754 154.584 380.286 154.791 379.809 154.998C379.737 155.025 379.665 155.061 379.593 155.097C379.044 155.331 378.495 155.538 377.937 155.745C377.766 155.808 377.595 155.862 377.415 155.916C377.028 156.051 376.641 156.177 376.254 156.303C376.038 156.366 375.813 156.429 375.597 156.492C375.246 156.591 374.904 156.69 374.553 156.78C374.319 156.843 374.076 156.888 373.833 156.942C373.5 157.014 373.167 157.095 372.825 157.158C372.573 157.203 372.321 157.248 372.069 157.293C371.736 157.347 371.412 157.401 371.079 157.446C370.827 157.482 370.566 157.509 370.305 157.545C369.972 157.581 369.648 157.617 369.315 157.644C369.054 157.662 368.793 157.689 368.541 157.698C368.208 157.716 367.875 157.734 367.551 157.743C367.29 157.743 367.029 157.761 366.768 157.761C366.435 157.761 366.102 157.761 365.76 157.752C365.499 157.752 365.247 157.743 364.986 157.725C364.644 157.707 364.302 157.68 363.96 157.653C363.708 157.635 363.456 157.617 363.213 157.59C362.853 157.554 362.502 157.5 362.142 157.446C361.908 157.41 361.674 157.383 361.44 157.347C361.044 157.284 360.648 157.203 360.252 157.122C360.054 157.086 359.856 157.05 359.667 157.005C359.073 156.87 358.488 156.726 357.903 156.555C356.598 156.186 355.347 155.736 354.132 155.205L361.674 158.454C362.889 158.976 364.14 159.426 365.445 159.804C366.03 159.975 366.624 160.119 367.209 160.254C367.407 160.299 367.596 160.335 367.794 160.371C368.19 160.452 368.586 160.533 368.982 160.596C369.216 160.632 369.45 160.659 369.684 160.695C370.044 160.749 370.395 160.794 370.755 160.839C371.007 160.866 371.259 160.884 371.502 160.902C371.844 160.929 372.186 160.956 372.528 160.974C372.789 160.983 373.041 160.992 373.302 161.001C373.635 161.001 373.977 161.019 374.31 161.01C374.571 161.01 374.832 161.01 375.084 160.992C375.417 160.983 375.75 160.965 376.083 160.947C376.344 160.929 376.605 160.911 376.857 160.893C377.19 160.866 377.514 160.83 377.847 160.794C378.099 160.767 378.36 160.731 378.612 160.695C378.945 160.65 379.278 160.596 379.602 160.542C379.854 160.497 380.106 160.461 380.349 160.407C380.682 160.344 381.024 160.263 381.357 160.191C381.6 160.137 381.834 160.083 382.077 160.029C382.428 159.939 382.77 159.84 383.121 159.741C383.337 159.678 383.562 159.624 383.778 159.552C384.165 159.435 384.552 159.3 384.939 159.165C385.11 159.102 385.29 159.048 385.461 158.994C386.019 158.796 386.568 158.58 387.117 158.346C387.189 158.319 387.252 158.283 387.324 158.256C387.801 158.049 388.269 157.842 388.737 157.617C388.926 157.527 389.106 157.428 389.295 157.338C389.646 157.167 389.988 156.987 390.33 156.807C390.537 156.69 390.744 156.573 390.96 156.456C391.275 156.276 391.581 156.105 391.887 155.916C392.103 155.781 392.319 155.646 392.535 155.511C392.832 155.322 393.12 155.142 393.408 154.944C393.489 154.89 393.57 154.845 393.651 154.791C393.759 154.71 393.867 154.629 393.984 154.548C394.362 154.287 394.731 154.008 395.1 153.729C395.28 153.594 395.46 153.459 395.631 153.315C396.045 152.991 396.441 152.658 396.837 152.316C396.927 152.235 397.026 152.163 397.116 152.082C397.143 152.055 397.17 152.037 397.197 152.01C397.431 151.803 397.656 151.587 397.89 151.38C398.097 151.191 398.304 151.011 398.502 150.813C398.727 150.597 398.952 150.363 399.177 150.138C399.348 149.958 399.528 149.796 399.699 149.616C399.717 149.598 399.735 149.571 399.753 149.553C399.87 149.427 399.987 149.292 400.104 149.166C400.365 148.878 400.626 148.599 400.887 148.302C401.031 148.14 401.166 147.969 401.31 147.807C401.472 147.618 401.634 147.429 401.787 147.24C401.859 147.159 401.922 147.069 401.985 146.988C402.111 146.835 402.228 146.682 402.345 146.52C402.57 146.232 402.786 145.935 403.002 145.638C403.119 145.476 403.236 145.314 403.353 145.152C403.416 145.062 403.488 144.972 403.551 144.882C403.731 144.63 403.902 144.36 404.073 144.099C404.145 143.991 404.208 143.892 404.28 143.793C404.559 143.37 404.82 142.938 405.081 142.497C405.099 142.461 405.126 142.425 405.144 142.389C405.207 142.281 405.27 142.164 405.342 142.047C405.558 141.678 405.765 141.3 405.963 140.922C406.044 140.76 406.134 140.607 406.215 140.445C406.287 140.31 406.359 140.175 406.431 140.031C406.548 139.797 406.656 139.563 406.773 139.329C406.836 139.194 406.908 139.05 406.971 138.915C407.196 138.429 407.421 137.943 407.628 137.439C407.637 137.421 407.646 137.394 407.655 137.367C407.7 137.268 407.736 137.169 407.772 137.07C407.952 136.638 408.114 136.206 408.276 135.765C408.339 135.585 408.402 135.405 408.465 135.225C408.537 135.027 408.609 134.838 408.672 134.64C408.771 134.343 408.87 134.046 408.96 133.749C409.167 133.092 409.347 132.426 409.518 131.769C409.536 131.706 409.554 131.634 409.572 131.571C409.626 131.373 409.662 131.175 409.707 130.977C409.779 130.689 409.842 130.392 409.905 130.104C409.968 129.825 410.013 129.546 410.067 129.267C410.121 128.979 410.175 128.682 410.229 128.394C410.247 128.313 410.265 128.223 410.274 128.142C410.292 128.007 410.31 127.863 410.328 127.728C410.4 127.278 410.454 126.819 410.508 126.369C410.535 126.144 410.562 125.928 410.58 125.703C410.625 125.226 410.661 124.74 410.688 124.263C410.688 124.137 410.715 124.002 410.715 123.876C410.715 123.831 410.715 123.786 410.715 123.741C410.733 123.399 410.733 123.066 410.742 122.733C410.742 122.499 410.76 122.265 410.76 122.031L410.814 122.004Z" fill="#FB8E0C" stroke="#090000" stroke-width="0.9" stroke-miterlimit="10"/>
<path d="M379.872 85.7526C397.863 90.9096 407.538 110.935 401.481 130.474C395.424 150.022 375.93 161.686 357.939 156.52C339.948 151.363 330.273 131.338 336.339 111.79C342.396 92.2506 361.89 80.5866 379.881 85.7436L379.872 85.7526Z" fill="white" stroke="#090000" stroke-width="0.9" stroke-miterlimit="10"/>
<path d="M387.405 89.0015C405.396 94.1585 415.071 114.183 409.005 133.731C402.948 153.279 383.454 164.943 365.463 159.777C363.213 159.129 361.098 158.256 359.118 157.176" stroke="black" stroke-width="0.225" stroke-miterlimit="10"/>
<path d="M399.956 134.533C408.071 115.725 400.739 94.4765 383.579 87.072C366.419 79.6676 345.93 88.9116 337.814 107.719C329.699 126.527 337.031 147.776 354.191 155.18C371.351 162.584 391.841 153.34 399.956 134.533Z" stroke="black" stroke-width="0.225" stroke-miterlimit="10"/>
<path d="M379.872 85.7435L387.414 88.9925C405.405 94.1495 415.08 114.175 409.014 133.723L401.472 130.474C407.529 110.926 397.854 90.9005 379.872 85.7435Z" stroke="black" stroke-width="0.9" stroke-miterlimit="10"/>
<path d="M394.812 95.2925L402.354 98.5415" stroke="black" stroke-width="0.9" stroke-miterlimit="10"/>
<path d="M402.32 111.465L409.862 114.714" stroke="black" stroke-width="0.9" stroke-miterlimit="10"/>
<path d="M401.472 130.474L409.014 133.723C402.957 153.271 383.463 164.935 365.472 159.769L357.93 156.52C375.921 161.677 395.415 150.013 401.472 130.474Z" stroke="black" stroke-width="0.9" stroke-miterlimit="10"/>
<path d="M391.491 147.061L399.033 150.31" stroke="black" stroke-width="0.9" stroke-miterlimit="10"/>
<path d="M375.867 156.403L383.409 159.661" stroke="black" stroke-width="0.9" stroke-miterlimit="10"/>
<path d="M383.634 87.0935L391.176 90.3425C406.71 97.0475 414.63 115.597 409.014 133.723C402.957 153.271 383.463 164.935 365.472 159.769C364.176 159.4 362.916 158.95 361.701 158.419L354.159 155.17C355.374 155.692 356.625 156.142 357.93 156.52C375.921 161.677 395.415 150.013 401.472 130.474C407.088 112.339 399.177 93.7985 383.634 87.0935Z" stroke="black" stroke-width="0.225" stroke-miterlimit="10"/>
<path d="M379.872 85.7435L387.414 88.9925C405.405 94.1495 415.08 114.175 409.014 133.723L401.472 130.474C407.529 110.926 397.854 90.9005 379.872 85.7435Z" stroke="black" stroke-width="0.225" stroke-miterlimit="10"/>
<path d="M391.176 90.3425C389.961 89.8205 388.71 89.3705 387.405 88.9925L379.863 85.7435C381.159 86.1125 382.419 86.5625 383.634 87.0935C385.893 88.0655 388.908 89.3705 391.176 90.3425Z" stroke="black" stroke-width="0.225" stroke-miterlimit="10"/>
<path d="M383.587 118.124L383.587 118.124L380.944 131.964L380.54 131.766C380.54 131.766 380.54 131.766 380.54 131.766C379.302 134.291 377.652 135.484 375.663 135.861C373.633 136.245 371.189 135.793 368.361 134.867L367.955 134.734L367.801 135.133L365.757 140.442L363.289 139.466L365.306 134.222L365.466 133.806L365.051 133.642C364.173 133.297 363.3 132.942 362.43 132.577L362.003 132.397L361.836 132.83L359.813 138.089L357.349 137.114L359.398 131.784L359.557 131.37L359.146 131.205C358.845 131.084 358.54 130.959 358.233 130.834C357.757 130.64 357.275 130.443 356.789 130.251L356.789 130.251L352.971 128.74L354.755 125.664L354.772 125.671C354.999 125.764 355.303 125.889 355.606 126.011C355.908 126.134 356.212 126.256 356.439 126.344C356.552 126.387 356.65 126.424 356.721 126.449C356.754 126.461 356.792 126.474 356.825 126.483L356.826 126.483C356.831 126.484 356.843 126.487 356.859 126.491C357.424 126.695 357.911 126.628 358.297 126.407C358.674 126.192 358.91 125.856 359.044 125.612L359.059 125.585L359.07 125.557L362.554 116.492L362.516 116.477L362.528 116.453L362.565 116.467L365.053 109.995L365.068 109.958L365.075 109.918C365.157 109.489 365.171 108.953 364.94 108.434C364.71 107.918 364.264 107.474 363.539 107.172C363.528 107.166 363.52 107.161 363.516 107.158L363.515 107.158C363.482 107.139 363.443 107.121 363.411 107.107C363.341 107.075 363.243 107.034 363.131 106.989C362.904 106.897 362.599 106.778 362.295 106.661C362.008 106.551 361.719 106.442 361.494 106.357L362.588 103.513L366.296 104.982L366.289 104.997L366.717 105.167C367.408 105.44 368.121 105.707 368.844 105.974L369.261 106.128L369.42 105.713L371.441 100.459L373.909 101.434L371.927 106.587L371.764 107.013L372.191 107.171C373.081 107.5 373.971 107.832 374.833 108.175L375.255 108.343L375.419 107.918L377.383 102.812L379.853 103.787L377.83 109.052L377.683 109.431L378.047 109.615C380.083 110.643 381.75 111.801 382.766 113.183C383.763 114.541 384.148 116.137 383.587 118.124ZM375.097 128.859L375.099 128.853C375.744 127.598 375.708 126.47 375.2 125.494C374.701 124.537 373.775 123.778 372.758 123.173C371.243 122.271 369.363 121.626 368.078 121.184C367.653 121.038 367.293 120.915 367.033 120.812L366.61 120.644L366.447 121.069L363.525 128.677L363.365 129.094L363.78 129.257C363.957 129.327 364.168 129.414 364.406 129.512C365.626 130.016 367.568 130.817 369.455 131.153C370.585 131.354 371.747 131.399 372.754 131.085C373.786 130.763 374.633 130.068 375.097 128.859ZM377.685 117.515L377.685 117.515C378.12 116.38 378.028 115.377 377.587 114.515C377.156 113.674 376.41 113.004 375.597 112.47C374.299 111.618 372.707 111.039 371.673 110.664C371.42 110.572 371.201 110.492 371.028 110.424L370.605 110.257L370.442 110.681L367.788 117.584L367.629 118L368.043 118.164C368.187 118.221 368.359 118.293 368.554 118.374C369.568 118.797 371.202 119.478 372.801 119.736C373.758 119.89 374.755 119.904 375.63 119.59C376.527 119.268 377.262 118.613 377.685 117.515Z" fill="#FB8E0C" stroke="black" stroke-width="0.9"/>
</g>
<defs>
<clipPath id="clip0_128_5921">
<rect width="471.76" height="456.67" fill="white" transform="translate(24.1201 11.665)"/>
</clipPath>
</defs>
</svg>
