<svg width="24" height="24" viewBox="0 0 24 24" fill="none" xmlns="http://www.w3.org/2000/svg">
    <path d="M20.8247 17.6797H19.0719V15.9322C19.0719 15.8361 18.993 15.7574 18.8966 15.7574H17.845C17.7486 15.7574 17.6697 15.8361 17.6697 15.9322V17.6797H15.9169C15.8205 17.6797 15.7416 17.7583 15.7416 17.8545V18.903C15.7416 18.9991 15.8205 19.0777 15.9169 19.0777H17.6697V20.8252C17.6697 20.9214 17.7486 21 17.845 21H18.8966C18.993 21 19.0719 20.9214 19.0719 20.8252V19.0777H20.8247C20.9211 19.0777 21 18.9991 21 18.903V17.8545C21 17.7583 20.9211 17.6797 20.8247 17.6797ZM9.4644 11.7032C9.44468 11.5131 9.43373 11.3209 9.43373 11.1265C9.43373 10.7792 9.46659 10.4406 9.52794 10.1107C9.54328 10.0321 9.50165 9.95129 9.42934 9.91852C9.13137 9.78527 8.85749 9.60178 8.62087 9.37023C8.34204 9.10069 8.12263 8.77617 7.97664 8.41736C7.83064 8.05855 7.76127 7.67334 7.77295 7.28631C7.79267 6.58512 8.07531 5.91888 8.56828 5.41646C9.10946 4.86381 9.83687 4.56236 10.6103 4.5711C11.3092 4.57765 11.984 4.84633 12.4945 5.32253C12.6676 5.48418 12.8166 5.6633 12.9415 5.85553C12.9853 5.92324 13.0708 5.95164 13.1453 5.92543C13.5309 5.79218 13.9384 5.69825 14.3569 5.65456C14.4796 5.64146 14.5497 5.51039 14.4949 5.40117C13.7829 3.9966 12.328 3.02673 10.6453 3.00051C8.21772 2.96338 6.19324 4.949 6.19324 7.36932C6.19324 8.74113 6.82644 9.96439 7.81896 10.7661C7.12223 11.0872 6.48026 11.5306 5.92375 12.0854C4.72308 13.2803 4.04387 14.8575 4.00005 16.5416C3.99947 16.5649 4.00357 16.5881 4.01212 16.6098C4.02066 16.6316 4.03348 16.6513 4.04982 16.668C4.06615 16.6847 4.08567 16.698 4.10723 16.707C4.12879 16.7161 4.15194 16.7208 4.17533 16.7208H5.40448C5.4987 16.7208 5.57757 16.6465 5.57976 16.5526C5.62139 15.2856 6.13628 14.0995 7.04116 13.1995C7.68531 12.5573 8.47407 12.1117 9.33513 11.8954C9.41839 11.8714 9.47536 11.7906 9.4644 11.7032ZM19.3348 11.1265C19.3348 8.73676 17.409 6.79482 15.0208 6.75769C12.5931 6.72055 10.5709 8.70618 10.5709 11.1265C10.5709 12.4983 11.2062 13.7216 12.1966 14.5232C11.4926 14.8486 10.8518 15.2952 10.3036 15.8426C9.10289 17.0375 8.42368 18.6146 8.37986 20.2966C8.37927 20.3199 8.38337 20.3431 8.39192 20.3648C8.40047 20.3865 8.41329 20.4063 8.42962 20.423C8.44596 20.4397 8.46548 20.453 8.48703 20.462C8.50859 20.4711 8.53175 20.4757 8.55514 20.4757H9.7821C9.87631 20.4757 9.95518 20.4015 9.95738 20.3075C9.999 19.0406 10.5139 17.8545 11.4188 16.9545C12.3631 16.013 13.6163 15.4953 14.9528 15.4953C17.3717 15.4953 19.3348 13.5403 19.3348 11.1265ZM16.9357 13.1034C16.4055 13.632 15.7022 13.9225 14.9528 13.9225C14.2035 13.9225 13.5002 13.632 12.97 13.1034C12.7054 12.841 12.4963 12.5283 12.3552 12.1838C12.2141 11.8394 12.1437 11.4702 12.1484 11.0981C12.1549 10.3816 12.442 9.68916 12.9437 9.17582C13.4695 8.63846 14.1729 8.3392 14.9244 8.33046C15.6671 8.3239 16.388 8.61225 16.9182 9.12995C17.4615 9.66076 17.7595 10.3707 17.7595 11.1265C17.7573 11.8736 17.4659 12.5748 16.9357 13.1034Z" fill="white"/>
</svg>
