<svg width="18" height="18" viewBox="0 0 18 18" fill="none" xmlns="http://www.w3.org/2000/svg">
    <path d="M10.3711 8.12489L8.99866 7.49863L10.3711 6.87236L10.9974 5.49991L11.6236 6.87236L12.9961 7.49863L11.6236 8.12489L10.9974 9.49734L10.3711 8.12489ZM3.66876 10.8298L4.29502 9.45737L5.66747 8.83111L4.29502 8.20484L3.66876 6.83239L3.04249 8.20484L1.67004 8.83111L3.04249 9.45737L3.66876 10.8298ZM6.66683 7.49863L7.39303 5.89299L8.99866 5.16679L7.39303 4.4406L6.66683 2.83496L5.94063 4.4406L4.335 5.16679L5.94063 5.89299L6.66683 7.49863ZM4.00188 15.1604L7.99931 11.1563L10.6643 13.8212L16.3273 7.45199L15.3879 6.5126L10.6643 11.8225L7.99931 9.15756L3.00252 14.161L4.00188 15.1604Z" fill="white"/>
</svg>
