<svg width="25" height="29" viewBox="0 0 25 29" fill="none" xmlns="http://www.w3.org/2000/svg">
    <rect x="0.5" width="24" height="28.0023" rx="12" fill="#35D487"/>
    <path d="M13.5016 9.41797V21.0023C13.5016 21.5555 13.0547 22.0023 12.5016 22.0023C11.9485 22.0023 11.5016 21.5555 11.5016 21.0023V9.41797L9.20786 11.7086C8.81724 12.0992 8.18286 12.0992 7.79224 11.7086C7.40161 11.318 7.40161 10.6836 7.79224 10.293L11.7922 6.29297C12.1829 5.90234 12.8172 5.90234 13.2079 6.29297L17.2079 10.293C17.5985 10.6836 17.5985 11.318 17.2079 11.7086C16.8172 12.0992 16.1829 12.0992 15.7922 11.7086L13.5016 9.41797Z" fill="white"/>
</svg>
