<svg width="18" height="18" viewBox="0 0 18 18" fill="none" xmlns="http://www.w3.org/2000/svg">
    <path d="M14.1885 3.84314H12.8408V3.2572C12.8408 3.19275 12.7881 3.14001 12.7236 3.14001H5.22363C5.15918 3.14001 5.10645 3.19275 5.10645 3.2572V3.84314H3.75879C3.58785 3.84314 3.42391 3.91105 3.30304 4.03192C3.18216 4.15279 3.11426 4.31673 3.11426 4.48767V6.65564C3.11426 7.85242 3.99316 8.84705 5.13867 9.02869C5.36572 10.7308 6.73242 12.0712 8.44629 12.2587V13.7997H5.5752C5.31592 13.7997 5.10645 14.0092 5.10645 14.2684V14.7416C5.10645 14.806 5.15918 14.8588 5.22363 14.8588H12.7236C12.7881 14.8588 12.8408 14.806 12.8408 14.7416V14.2684C12.8408 14.0092 12.6313 13.7997 12.3721 13.7997H9.50098V12.2587C11.2148 12.0712 12.5815 10.7308 12.8086 9.02869C13.9541 8.84705 14.833 7.85242 14.833 6.65564V4.48767C14.833 4.31673 14.7651 4.15279 14.6442 4.03192C14.5234 3.91105 14.3594 3.84314 14.1885 3.84314ZM4.16895 6.65564V4.89783H5.10645V7.93884C4.83435 7.85193 4.5969 7.6808 4.4284 7.45015C4.25989 7.21951 4.16903 6.94128 4.16895 6.65564ZM11.7861 8.53064C11.7861 9.24988 11.5063 9.9281 10.9966 10.4364C10.4868 10.9462 9.81006 11.226 9.09082 11.226H8.85645C8.13721 11.226 7.45898 10.9462 6.95068 10.4364C6.44092 9.92664 6.16113 9.24988 6.16113 8.53064V4.1947H11.7861V8.53064ZM13.7783 6.65564C13.7783 7.25623 13.3843 7.76599 12.8408 7.93884V4.89783H13.7783V6.65564Z" fill="white"/>
</svg>
