<svg width="22" height="22" viewBox="0 0 22 22" fill="none" xmlns="http://www.w3.org/2000/svg">
    <path d="M20.625 20.1573C20.4888 20.4976 20.2425 20.6238 19.8758 20.6231C16.0349 20.6157 12.1939 20.6164 8.35291 20.625C7.27524 20.6284 6.377 20.2492 5.62321 19.4892C4.56995 18.4273 3.51589 17.3663 2.46105 16.306C1.75921 15.5963 1.36411 14.7482 1.37523 13.7355C1.38338 12.9931 1.63882 12.3437 2.16563 11.8137C5.35956 8.60008 8.55554 5.38855 11.7536 2.17908C12.6768 1.25771 13.7943 1.20216 14.9637 1.64026C15.4517 1.82311 15.8635 2.13103 16.2307 2.50118C17.2796 3.55847 18.3295 4.61473 19.3805 5.66995C20.0096 6.30124 20.4076 7.04526 20.4838 7.94557C20.5594 8.83773 20.2957 9.608 19.6606 10.2461C17.4618 12.4552 15.264 14.6654 13.0674 16.8767C12.2876 17.661 11.5078 18.4454 10.7281 19.2297C10.6814 19.2766 10.638 19.3267 10.5631 19.4077H10.8189C13.814 19.4077 16.8091 19.4117 19.8041 19.4028C20.1783 19.4016 20.4636 19.4972 20.625 19.8547L20.625 20.1573ZM11.6424 16.5901C11.686 16.5485 11.7319 16.5067 11.7757 16.4627C12.3608 15.8746 12.9456 15.2863 13.5304 14.6979C15.2806 12.9376 17.0313 11.1778 18.7826 9.41853C19.1962 9.00439 19.3597 8.51928 19.278 7.94261C19.2056 7.433 18.9675 6.96183 18.6009 6.60267C17.5007 5.48986 16.3975 4.37996 15.2915 3.27299C15.0344 3.01201 14.7181 2.81783 14.3698 2.70721C13.6553 2.48156 13.0282 2.58678 12.4758 3.14628C10.162 5.48956 7.84083 7.82537 5.51214 10.1537C5.45982 10.1942 5.40217 10.2273 5.34084 10.2519C7.47212 12.3956 9.54971 14.4852 11.6424 16.5901ZM10.7089 17.4513L4.50371 11.2092C3.99161 11.715 3.45789 12.2292 2.94013 12.7593C2.69423 13.011 2.59105 13.3387 2.57696 13.6889C2.54821 14.4035 2.84558 14.9816 3.3351 15.4745C4.3888 16.5356 5.43503 17.6044 6.50425 18.6494C6.76012 18.8979 7.05699 19.0999 7.38162 19.2461C7.9738 19.5102 8.61187 19.5432 9.11976 19.0932C9.6953 18.5832 10.1961 17.988 10.7089 17.4513Z" fill="#FD4E4E" stroke="#FD4E4E" stroke-width="0.25"/>
    <path d="M15.7839 9.625C15.713 9.58502 15.5477 9.53212 15.4374 9.4233C14.4776 8.47618 13.5238 7.52297 12.576 6.56368C12.3134 6.29901 12.3109 5.93563 12.5523 5.68758C12.7963 5.43685 13.1768 5.43453 13.442 5.69839C14.3979 6.64951 15.351 7.60349 16.3012 8.56032C16.5058 8.76605 16.5527 9.02642 16.4409 9.26403C16.3294 9.50106 16.1376 9.61698 15.7839 9.625Z" fill="#FD4E4E"/>
</svg>
