<svg width="14" height="16" viewBox="0 0 14 16" fill="none" xmlns="http://www.w3.org/2000/svg">
    <path d="M1.66979 15.9167C1.23437 15.9167 0.861762 15.7759 0.551956 15.4942C0.241623 15.2121 0.0864563 14.8731 0.0864563 14.4773V1.52277C0.0864563 1.12693 0.241623 0.787957 0.551956 0.505836C0.861762 0.224195 1.23437 0.083374 1.66979 0.083374H7.21146V1.52277H1.66979V2.24247H7.21146V3.68186H1.66979V12.3182H9.58646V10.8788H11.1698V14.4773C11.1698 14.8731 11.0149 15.2121 10.7051 15.4942C10.3947 15.7759 10.0219 15.9167 9.58646 15.9167H1.66979ZM1.66979 14.4773H9.58646V13.7576H1.66979V14.4773ZM10.3781 9.13356C10.2726 9.13356 10.1736 9.11845 10.0812 9.08822C9.98889 9.05848 9.90312 9.00762 9.82396 8.93565L6.97396 6.34474C6.82882 6.21279 6.75625 6.04486 6.75625 5.84095C6.75625 5.63704 6.82882 5.46911 6.97396 5.33716C7.11909 5.20522 7.30382 5.13613 7.52812 5.12989C7.75243 5.12413 7.93715 5.19322 8.08229 5.33716L9.58646 6.70459V2.24247C9.58646 2.03855 9.66246 1.8675 9.81446 1.72932C9.96593 1.59162 10.1538 1.52277 10.3781 1.52277C10.6024 1.52277 10.7903 1.59162 10.9418 1.72932C11.0938 1.8675 11.1698 2.03855 11.1698 2.24247V6.70459L12.674 5.33716C12.8191 5.20522 13.0038 5.13925 13.2281 5.13925C13.4524 5.13925 13.6371 5.20522 13.7823 5.33716C13.9274 5.46911 14 5.63704 14 5.84095C14 6.04486 13.9274 6.21279 13.7823 6.34474L10.9323 8.93565C10.8531 9.00762 10.7674 9.05848 10.675 9.08822C10.5826 9.11845 10.4837 9.13356 10.3781 9.13356ZM1.66979 2.24247V1.52277V2.24247ZM1.66979 14.4773V13.7576V14.4773Z" fill="#224ECB"/>
</svg>
