<svg width="36" height="36" viewBox="0 0 36 36" fill="none" xmlns="http://www.w3.org/2000/svg">
    <rect width="36" height="36" rx="12" fill="white"/>
    <path d="M25.4844 23.0781H23.9219V21.5156C23.9219 21.4296 23.8516 21.3593 23.7656 21.3593H22.8281C22.7422 21.3593 22.6719 21.4296 22.6719 21.5156V23.0781H21.1094C21.0234 23.0781 20.9531 23.1484 20.9531 23.2343V24.1718C20.9531 24.2578 21.0234 24.3281 21.1094 24.3281H22.6719V25.8906C22.6719 25.9765 22.7422 26.0468 22.8281 26.0468H23.7656C23.8516 26.0468 23.9219 25.9765 23.9219 25.8906V24.3281H25.4844C25.5703 24.3281 25.6406 24.2578 25.6406 24.1718V23.2343C25.6406 23.1484 25.5703 23.0781 25.4844 23.0781ZM15.3574 17.7343C15.3398 17.5644 15.3301 17.3925 15.3301 17.2187C15.3301 16.9082 15.3594 16.6054 15.4141 16.3105C15.4277 16.2402 15.3906 16.1679 15.3262 16.1386C15.0605 16.0195 14.8164 15.8554 14.6055 15.6484C14.3569 15.4074 14.1613 15.1172 14.0312 14.7964C13.901 14.4756 13.8392 14.1312 13.8496 13.7851C13.8672 13.1582 14.1191 12.5625 14.5586 12.1132C15.041 11.6191 15.6894 11.3496 16.3789 11.3574C17.0019 11.3632 17.6035 11.6035 18.0586 12.0293C18.2129 12.1738 18.3457 12.334 18.457 12.5058C18.4961 12.5664 18.5723 12.5918 18.6387 12.5683C18.9824 12.4492 19.3457 12.3652 19.7187 12.3261C19.8281 12.3144 19.8906 12.1972 19.8418 12.0996C19.207 10.8437 17.9102 9.97653 16.4102 9.95309C14.2461 9.91989 12.4414 11.6953 12.4414 13.8593C12.4414 15.0859 13.0059 16.1797 13.8906 16.8964C13.2695 17.1836 12.6973 17.58 12.2012 18.0761C11.1308 19.1445 10.5254 20.5546 10.4863 22.0605C10.4858 22.0813 10.4895 22.1021 10.4971 22.1215C10.5047 22.1409 10.5161 22.1586 10.5307 22.1735C10.5452 22.1884 10.5626 22.2003 10.5819 22.2084C10.6011 22.2165 10.6217 22.2207 10.6426 22.2207H11.7383C11.8223 22.2207 11.8926 22.1543 11.8945 22.0703C11.9316 20.9375 12.3906 19.8769 13.1973 19.0722C13.7715 18.498 14.4746 18.0996 15.2422 17.9062C15.3164 17.8847 15.3672 17.8125 15.3574 17.7343ZM24.1563 17.2187C24.1563 15.082 22.4395 13.3457 20.3105 13.3125C18.1465 13.2793 16.3437 15.0547 16.3437 17.2187C16.3437 18.4453 16.9102 19.539 17.793 20.2558C17.1654 20.5467 16.5942 20.9461 16.1055 21.4355C15.0351 22.5039 14.4297 23.914 14.3906 25.4179C14.3901 25.4388 14.3938 25.4595 14.4014 25.4789C14.409 25.4983 14.4204 25.516 14.435 25.5309C14.4495 25.5459 14.4669 25.5577 14.4862 25.5658C14.5054 25.5739 14.526 25.5781 14.5469 25.5781H15.6406C15.7246 25.5781 15.7949 25.5117 15.7969 25.4277C15.834 24.2949 16.293 23.2343 17.0996 22.4296C17.9414 21.5878 19.0586 21.125 20.25 21.125C22.4063 21.125 24.1563 19.3769 24.1563 17.2187ZM22.0176 18.9863C21.5449 19.4589 20.918 19.7187 20.25 19.7187C19.582 19.7187 18.9551 19.4589 18.4824 18.9863C18.2466 18.7517 18.0602 18.4721 17.9344 18.1641C17.8086 17.8561 17.7459 17.526 17.75 17.1933C17.7559 16.5527 18.0117 15.9336 18.459 15.4746C18.9277 14.9941 19.5547 14.7265 20.2246 14.7187C20.8867 14.7129 21.5293 14.9707 22.002 15.4336C22.4863 15.9082 22.752 16.5429 22.752 17.2187C22.75 17.8867 22.4902 18.5136 22.0176 18.9863Z" fill="#0D265E"/>
</svg>
