<svg width="140" height="118" viewBox="0 0 140 118" fill="none" xmlns="http://www.w3.org/2000/svg">
    <path d="M93.5004 -69L84.7584 -10.6671L93.5004 18.6282L102.242 -10.6671L93.5004 -69Z" fill="#153990"/>
    <path d="M93.5004 118L102.242 59.6671L93.5004 30.3718L84.7584 59.6671L93.5004 118Z" fill="#153990"/>
    <path d="M187 24.5021L128.668 15.76L99.3724 24.502L128.668 33.2441L187 24.5021Z" fill="#153990"/>
    <path d="M0 24.5021L58.3325 33.2441L87.6276 24.5021L58.3325 15.76L0 24.5021Z" fill="#153990"/>
    <path d="M159.218 -42.0142L112.004 -6.66047L97.6343 20.3239L124.442 5.62728L159.218 -42.0142Z" fill="#153990"/>
    <path d="M27.782 91.0157L74.9967 55.662L89.3661 28.6776L62.5587 43.3742L27.782 91.0157Z" fill="#153990"/>
    <path d="M160.012 90.2118L124.659 42.9968L97.6748 28.6273L112.371 55.4349L160.012 90.2118Z" fill="#153990"/>
    <path d="M26.9875 -41.2117L62.341 6.00333L89.3252 20.3728L74.6287 -6.43478L26.9875 -41.2117Z" fill="#153990"/>
</svg>
