<svg width="14" height="14" viewBox="0 0 14 14" fill="none" xmlns="http://www.w3.org/2000/svg">
    <rect width="14" height="14" rx="7" fill="#A9BCE7"/>
    <path d="M9.65366 6.15376H9.12866V4.57876C9.12866 3.42376 8.18366 2.47876 7.02866 2.47876C5.87366 2.47876 4.92866 3.42376 4.92866 4.57876V6.15376H4.40366C4.14116 6.15376 3.87866 6.41626 3.87866 6.67876V10.3538C3.87866 10.6163 4.14116 10.8788 4.40366 10.8788H9.65366C9.91616 10.8788 10.1787 10.6163 10.1787 10.3538V6.67876C10.1787 6.41626 9.91616 6.15376 9.65366 6.15376ZM7.55366 9.82876H6.50366L6.71366 8.67376C6.45116 8.56876 6.24116 8.25376 6.24116 7.99126C6.24116 7.57126 6.60866 7.20376 7.02866 7.20376C7.44866 7.20376 7.81616 7.57126 7.81616 7.99126C7.81616 8.30626 7.65866 8.56876 7.34366 8.67376L7.55366 9.82876ZM8.07866 6.15376H5.97866V4.57876C5.97866 4.00126 6.45116 3.52876 7.02866 3.52876C7.60616 3.52876 8.07866 4.00126 8.07866 4.57876V6.15376Z" fill="white"/>
</svg>
