<svg width="21" height="21" viewBox="0 0 21 21" fill="none" xmlns="http://www.w3.org/2000/svg">
    <path d="M20.3271 10.7876C20.327 12.7278 20.3336 14.668 20.3252 16.6082C20.3169 18.5198 19.082 20.0606 17.2357 20.4648C16.9441 20.5245 16.647 20.5531 16.3494 20.5501C13.1325 20.5559 9.91558 20.5566 6.69868 20.5522C4.70319 20.5486 3.12809 19.2418 2.78588 17.2835C2.7052 16.8218 2.73383 16.3402 2.72264 15.8674C2.71378 15.4934 2.71643 15.1188 2.72204 14.7446C2.73111 14.1398 3.15254 13.7066 3.71715 13.7137C4.27089 13.7206 4.6778 14.1563 4.68034 14.7507C4.68291 15.3541 4.67962 15.9576 4.68123 16.561C4.68442 17.7647 5.51974 18.6015 6.73309 18.6045C8.58986 18.6091 10.4466 18.6058 12.3034 18.6058C13.6483 18.6058 14.9931 18.6097 16.3379 18.6044C17.3315 18.6005 18.1033 18.0103 18.3178 17.0904C18.3595 16.8964 18.3791 16.6983 18.3762 16.4999C18.3795 12.6883 18.3802 8.87663 18.3782 5.06498C18.3779 3.77918 17.5562 2.95409 16.2754 2.95357C13.112 2.9523 9.9486 2.95228 6.78519 2.9535C5.50088 2.95394 4.68168 3.77589 4.68099 5.06014C4.68068 5.64067 4.68269 6.22121 4.68043 6.80173C4.67806 7.40802 4.26433 7.84666 3.70047 7.84549C3.14631 7.84433 2.72444 7.41404 2.72373 6.82024C2.7228 6.04154 2.70233 5.26 2.75874 4.48466C2.892 2.65281 4.53385 1.08304 6.37177 1.01877C7.30289 0.986206 8.23591 1.006 9.16808 1.00556C11.5674 1.00443 13.9667 1.00035 16.366 1.00676C18.2905 1.0119 19.8375 2.24721 20.2399 4.1037C20.3008 4.41828 20.3289 4.73834 20.3236 5.05872C20.331 6.96833 20.3272 8.87798 20.3271 10.7876Z" fill="#0D265E" stroke="#F0F4FB" stroke-width="0.2"/>
    <path d="M10.3583 9.80338C10.2743 9.71134 10.2275 9.65606 10.1766 9.60498C9.82586 9.25341 9.47075 8.90617 9.12391 8.55086C8.72334 8.14051 8.71948 7.54226 9.10674 7.15401C9.49042 6.76935 10.0976 6.76883 10.5038 7.17116C11.4754 8.13352 12.4425 9.10032 13.4052 10.0715C13.8201 10.4898 13.8211 11.0643 13.4063 11.4829C12.4436 12.4541 11.4765 13.4209 10.5049 14.3833C10.0989 14.7856 9.49094 14.7861 9.10761 14.4023C8.71987 14.014 8.72293 13.4154 9.12294 13.0054C9.46967 12.6499 9.8247 12.3026 10.1753 11.951C10.2265 11.8996 10.2736 11.8442 10.3587 11.7513H10.0664C7.42266 11.7513 4.77889 11.7508 2.13511 11.7498C1.9904 11.7558 1.84553 11.7429 1.70412 11.7116C1.23029 11.5837 0.950545 11.1429 1.00726 10.6409C1.03466 10.4147 1.14278 10.2061 1.31176 10.0532C1.48074 9.90042 1.69922 9.8137 1.92705 9.80903C2.84381 9.79736 3.76081 9.80369 4.67772 9.80349C6.47338 9.80311 8.26903 9.80308 10.0647 9.80338H10.3583Z" fill="#0D265E" stroke="#F0F4FB" stroke-width="0.2"/>
</svg>
