<svg width="90" height="90" viewBox="0 0 90 90" fill="none" xmlns="http://www.w3.org/2000/svg">
<path d="M45.0004 0L40.793 28.0747L45.0004 42.1741L49.2078 28.0747L45.0004 0Z" fill="white"/>
<path d="M45.0004 90L49.2078 61.9253L45.0004 47.8259L40.793 61.9253L45.0004 90Z" fill="white"/>
<path d="M90.0008 45.0008L61.9261 40.7933L47.8267 45.0007L61.9261 49.2082L90.0008 45.0008Z" fill="white"/>
<path d="M0 45.0008L28.0747 49.2082L42.1741 45.0008L28.0747 40.7933L0 45.0008Z" fill="white"/>
<path d="M76.6296 12.9883L53.9058 30.0035L46.99 42.9907L59.892 35.9174L76.6296 12.9883Z" fill="white"/>
<path d="M13.3707 77.0132L36.0946 59.998L43.0104 47.0108L30.1083 54.0841L13.3707 77.0132Z" fill="white"/>
<path d="M77.012 76.6262L59.9968 53.9024L47.0097 46.9866L54.0829 59.8887L77.012 76.6262Z" fill="white"/>
<path d="M12.9887 13.3738L30.0039 36.0976L42.9911 43.0134L35.9178 30.1113L12.9887 13.3738Z" fill="white"/>
</svg>
