<svg width="14" height="14" viewBox="0 0 14 14" fill="none" xmlns="http://www.w3.org/2000/svg">
    <path d="M6.99902 0L6.34457 4.36695L6.99902 6.56008L7.65347 4.36695L6.99902 0Z" fill="#0D265E"/>
    <path d="M6.99902 14L7.65347 9.63305L6.99902 7.43992L6.34457 9.63305L6.99902 14Z" fill="#0D265E"/>
    <path d="M14 7L9.63308 6.34555L7.43998 7L9.63308 7.65445L14 7Z" fill="#0D265E"/>
    <path d="M0 7L4.36692 7.65445L6.56002 7L4.36692 6.34555L0 7Z" fill="#0D265E"/>
    <path d="M11.9202 2.0199L8.38555 4.66657L7.30982 6.68669L9.3167 5.58647L11.9202 2.0199Z" fill="#0D265E"/>
    <path d="M2.07983 11.9791L5.61445 9.33245L6.69018 7.31233L4.6833 8.41256L2.07983 11.9791Z" fill="#0D265E"/>
    <path d="M11.9773 11.9194L9.33064 8.38479L7.31054 7.30905L8.41076 9.31594L11.9773 11.9194Z" fill="#0D265E"/>
    <path d="M2.02075 2.07959L4.66741 5.61423L6.68751 6.68997L5.58729 4.68308L2.02075 2.07959Z" fill="#0D265E"/>
</svg>
