<svg width="220" height="140" viewBox="0 0 220 140" fill="none" xmlns="http://www.w3.org/2000/svg">
    <g style="mix-blend-mode:soft-light">
        <path opacity="0.0526316" d="M113 -5.10986C146.996 -5.10986 174.634 28.4625 174.634 69.9839C174.634 111.505 146.996 145.078 113 145.078C79.0042 145.078 51.366 111.505 51.366 69.9839C51.366 28.4625 79.0042 -5.10986 113 -5.10986Z" stroke="white" stroke-width="0.5"/>
        <path opacity="0.105263" d="M121.219 -4.82506C155.084 -2.46572 178.943 32.8966 174.399 74.2611C169.854 115.626 138.646 147.151 104.781 144.792C70.9154 142.433 47.0561 107.07 51.6007 65.7059C56.1453 24.3414 87.3534 -7.1844 121.219 -4.82506Z" stroke="white" stroke-width="0.5"/>
        <path opacity="0.157895" d="M129.376 -3.97147C162.851 0.728847 182.752 37.6111 173.696 78.506C164.641 119.401 130.1 148.639 96.6242 143.939C63.1488 139.238 43.2485 102.356 52.3038 61.4611C61.3591 20.5663 95.9005 -8.67178 129.376 -3.97147Z" stroke="white" stroke-width="0.5"/>
        <path opacity="0.210526" d="M137.409 -2.5563C170.237 4.44843 186.029 42.5696 172.531 82.6854C159.032 122.801 121.42 149.527 88.5912 142.523C55.7623 135.518 39.9706 97.3968 53.469 57.2811C66.9675 17.1653 104.58 -9.56103 137.409 -2.5563Z" stroke="white" stroke-width="0.5"/>
        <path opacity="0.263158" d="M145.257 -0.588981C177.188 8.66573 188.752 47.7357 170.912 86.7684C153.071 125.801 112.674 149.811 80.7433 140.556C48.8122 131.301 37.2475 92.2315 55.0882 53.1988C72.9288 14.1662 113.325 -9.84369 145.257 -0.588981Z" stroke="white" stroke-width="0.5"/>
        <path opacity="0.315789" d="M152.86 1.91455C168.258 7.6323 177.766 20.4135 180.67 36.4859C183.574 52.5585 179.869 71.9089 168.852 90.7226C157.834 109.536 141.602 124.235 124.273 132.795C106.945 141.355 88.5381 143.77 73.1399 138.052C57.7417 132.335 48.2335 119.553 45.3297 103.481C42.4259 87.4083 46.1314 68.058 57.1485 49.2443C68.1655 30.4306 84.3985 15.732 101.727 7.17212C119.055 -1.38771 137.462 -3.80321 152.86 1.91455Z" stroke="white" stroke-width="0.5"/>
        <path opacity="0.368421" d="M160.161 4.93688C174.87 11.6995 182.944 25.0893 184.078 41.3036C185.211 57.5177 179.402 76.5393 166.366 94.5191C153.33 112.499 135.548 126.016 117.347 133.341C99.1468 140.667 80.548 141.794 65.8386 135.031C51.1292 128.269 43.0557 114.879 41.922 98.6645C40.7883 82.4504 46.598 63.4288 59.6339 45.4491C72.6698 27.4693 90.4518 13.952 108.652 6.62673C126.853 -0.698574 145.452 -1.82577 160.161 4.93688Z" stroke="white" stroke-width="0.5"/>
        <path opacity="0.421053" d="M167.104 8.45301C181.013 16.2081 187.591 30.1044 186.946 46.3374C186.3 62.5698 178.43 81.1179 163.474 98.1267C148.518 115.136 129.322 127.369 110.387 133.403C91.4522 139.438 72.8039 139.269 58.8955 131.514C44.9871 123.758 38.409 109.862 39.0543 93.6291C39.6996 77.3968 47.5698 58.8486 62.5259 41.8398C77.482 24.831 96.6781 12.5979 115.612 6.56328C134.548 0.528372 153.196 0.697934 167.104 8.45301Z" stroke="white" stroke-width="0.5"/>
        <path opacity="0.473684" d="M173.637 12.4395C186.638 21.127 191.672 35.4238 189.252 51.5524C186.832 67.6795 176.961 85.613 160.198 101.521C143.435 117.429 122.971 128.285 103.446 132.983C83.9203 137.681 65.3651 136.216 52.3635 127.529C39.362 118.841 34.3284 104.544 36.7482 88.4158C39.1679 72.2887 49.0393 54.3552 65.8022 38.4471C82.5651 22.539 103.029 11.6836 122.554 6.98567C142.08 2.28728 160.635 3.75209 173.637 12.4395Z" stroke="white" stroke-width="0.5"/>
        <path opacity="0.526316" d="M179.708 16.8626C191.704 26.4152 195.156 41.0039 190.979 56.9054C186.803 72.8046 175.005 89.9867 156.563 104.673C138.121 119.359 116.543 128.753 96.5774 132.079C76.6084 135.404 58.2881 132.656 46.292 123.103C34.2959 113.551 30.8443 98.962 35.0208 83.0605C39.1967 67.1612 50.9946 49.9791 69.437 35.2932C87.8795 20.6073 109.457 11.2125 129.423 7.8872C149.392 4.56139 167.712 7.30997 179.708 16.8626Z" stroke="white" stroke-width="0.5"/>
        <path opacity="0.578947" d="M185.272 21.6922C196.172 32.0364 198.016 46.8061 192.114 62.3596C186.214 77.9099 172.579 94.2095 152.597 107.561C132.615 120.913 110.089 128.775 89.8334 130.702C69.5733 132.63 51.6277 128.619 40.7277 118.274C29.8278 107.93 27.9835 93.1607 33.8855 77.6071C39.7862 62.0568 53.4212 45.7572 73.403 32.4056C93.3848 19.0541 115.91 11.1918 136.166 9.26464C156.426 7.33709 174.372 11.3481 185.272 21.6922Z" stroke="white" stroke-width="0.5"/>
        <path opacity="0.631579" d="M190.286 26.8904C200.008 37.9464 200.232 52.7851 192.649 67.8723C185.068 82.9552 169.699 98.248 148.33 110.163C126.961 122.078 103.658 128.348 83.2666 128.862C62.8693 129.376 45.4352 124.134 35.7135 113.078C25.9918 102.022 25.7682 87.1829 33.3513 72.0957C40.9321 57.0128 56.3007 41.72 77.6699 29.8049C99.0391 17.8897 122.342 11.6201 142.733 11.1061C163.131 10.5919 180.565 15.8343 190.286 26.8904Z" stroke="white" stroke-width="0.5"/>
        <path opacity="0.684211" d="M194.713 32.4165C203.183 44.0996 201.785 58.895 192.578 73.4008C183.374 87.9014 166.389 102.071 143.795 112.458C121.201 122.846 97.2987 127.475 76.9269 126.572C56.5476 125.668 39.7579 119.235 31.2873 107.551C22.8166 95.8681 24.2148 81.0728 33.4218 66.5669C42.6253 52.0664 59.6107 37.8971 82.2047 27.5095C104.799 17.1219 128.701 12.493 149.073 13.3963C169.452 14.2998 186.242 20.7333 194.713 32.4165Z" stroke="white" stroke-width="0.5"/>
        <path opacity="0.736842" d="M198.517 38.2291C205.673 50.4503 202.664 65.0902 191.903 78.9041C181.147 92.7117 162.674 105.649 139.027 114.43C115.38 123.21 91.0603 126.163 70.8635 123.849C50.6574 121.534 34.6398 113.959 27.4833 101.738C20.3268 89.5173 23.3357 74.8773 34.0971 61.0634C44.8535 47.2558 63.3265 34.3183 86.9731 25.5377C110.62 16.757 134.94 13.8044 155.137 16.1182C175.343 18.4331 191.36 26.008 198.517 38.2291Z" stroke="white" stroke-width="0.5"/>
        <path opacity="0.789474" d="M201.67 44.2842C207.459 56.9503 202.862 71.3242 190.628 84.3406C178.401 97.3499 158.581 108.957 134.062 116.063C109.542 123.17 84.9903 124.423 65.1222 120.716C45.2435 117.007 30.1196 108.349 24.3303 95.6832C18.541 83.0171 23.1377 68.6433 35.3718 55.6269C47.5992 42.6176 67.4192 31.0106 91.9384 23.9041C116.458 16.7976 141.01 15.544 160.878 19.251C180.757 22.96 195.881 31.6182 201.67 44.2842Z" stroke="white" stroke-width="0.5"/>
        <path opacity="0.842105" d="M204.148 50.5354C208.527 63.5505 202.377 77.5496 188.764 89.6688C175.158 101.781 154.142 111.968 128.937 117.346C103.732 122.724 79.1349 122.269 59.7473 117.197C40.3478 112.122 26.232 102.447 21.8526 89.4319C17.4732 76.4167 23.6228 62.4176 37.2366 50.2984C50.8421 38.1866 71.8582 27.9988 97.0631 22.6208C122.268 17.2428 146.865 17.698 166.253 22.7701C185.652 27.8452 199.768 37.5203 204.148 50.5354Z" stroke="white" stroke-width="0.5"/>
        <path opacity="0.894737" d="M205.931 56.935C208.869 70.201 201.212 83.7194 186.322 94.8487C171.443 105.971 149.391 114.661 123.692 118.27C97.9937 121.878 73.5389 119.717 54.7794 113.319C36.0075 106.916 23.0067 96.2981 20.0692 83.0321C17.1317 69.7661 24.788 56.2477 39.6778 45.1184C54.5578 33.9965 76.6097 25.3058 102.308 21.6974C128.007 18.089 152.461 20.2497 171.221 26.6483C189.993 33.0511 202.994 43.669 205.931 56.935Z" stroke="white" stroke-width="0.5"/>
        <path opacity="0.947368" d="M207.007 63.434C208.481 76.8511 199.375 89.7864 183.323 99.8406C167.282 109.888 144.362 117.015 118.366 118.826C92.3702 120.637 68.2444 116.787 50.2562 109.111C32.2554 101.429 20.4677 89.9496 18.9936 76.5325C17.5195 63.1153 26.6248 50.18 42.677 40.1259C58.718 30.0788 81.6377 22.9515 107.634 21.1404C133.63 19.3293 157.756 23.179 175.744 30.8553C193.745 38.5371 205.532 50.0168 207.007 63.434Z" stroke="white" stroke-width="0.5"/>
        <path d="M207.366 69.9835C207.366 83.4511 196.88 95.7052 179.788 104.607C162.708 113.503 139.096 119.012 113 119.012C86.9043 119.012 63.2915 113.503 46.2118 104.607C29.1199 95.7052 18.634 83.4511 18.634 69.9835C18.634 56.5158 29.1199 44.2618 46.2118 35.3598C63.2915 26.4641 86.9043 20.9546 113 20.9546C139.096 20.9546 162.708 26.4641 179.788 35.3598C196.88 44.2618 207.366 56.5158 207.366 69.9835Z" stroke="white" stroke-width="0.5"/>
    </g>
</svg>
