<svg width="20" height="20" viewBox="0 0 20 20" fill="none" xmlns="http://www.w3.org/2000/svg">
    <path d="M13.125 2.5C12.0044 2.5 10.9888 2.71 10.195 3.10562C9.40188 3.50125 8.75 4.14562 8.75 5V7.5C8.75 7.58063 8.77688 7.65875 8.78937 7.73438C8.16377 7.5754 7.52048 7.49665 6.875 7.5C5.75437 7.5 4.73875 7.71 3.945 8.10563C3.15187 8.50125 2.5 9.14563 2.5 10V15C2.5 15.8544 3.15188 16.4987 3.94563 16.8944C4.73875 17.29 5.75437 17.5 6.875 17.5C7.99563 17.5 9.01125 17.29 9.805 16.8944C10.5975 16.4987 11.25 15.8544 11.25 15V14.7463C11.8614 14.9115 12.4917 14.9968 13.125 15C14.2456 15 15.2612 14.79 16.055 14.3944C16.8475 13.9987 17.5 13.3544 17.5 12.5V5C17.5 4.14562 16.8481 3.50125 16.0544 3.10562C15.2619 2.71 14.2463 2.5 13.125 2.5ZM13.125 3.75C14.0769 3.75 14.9244 3.955 15.4881 4.23813C16.0525 4.52125 16.25 4.81938 16.25 5C16.25 5.18125 16.0525 5.47875 15.4881 5.76187C14.925 6.045 14.0769 6.25 13.125 6.25C12.1731 6.25 11.3256 6.045 10.7619 5.76187C10.1975 5.47875 10 5.18062 10 5C10 4.81875 10.1975 4.52125 10.7619 4.23813C11.325 3.955 12.1731 3.75 13.125 3.75ZM10 6.7775C10.0656 6.81375 10.1269 6.86063 10.1956 6.89437C10.9887 7.29 12.0044 7.5 13.125 7.5C14.2456 7.5 15.2612 7.29 16.055 6.89437C16.1231 6.86063 16.1844 6.81375 16.25 6.7775V7.5C16.25 7.68125 16.0525 7.97875 15.4881 8.26188C14.9244 8.545 14.0769 8.75 13.125 8.75C12.1731 8.75 11.3256 8.545 10.7619 8.26188C10.1975 7.97875 10 7.68062 10 7.5V6.7775ZM6.875 8.75C7.82688 8.75 8.67438 8.955 9.23812 9.23812C9.8025 9.52125 10 9.81938 10 10C10 10.1813 9.8025 10.4787 9.23812 10.7619C8.67438 11.045 7.82688 11.25 6.875 11.25C5.92313 11.25 5.07562 11.045 4.51187 10.7619C3.9475 10.4787 3.75 10.1806 3.75 10C3.75 9.81875 3.9475 9.52125 4.51187 9.23812C5.075 8.955 5.92313 8.75 6.875 8.75ZM16.25 9.2775V10C16.25 10.1813 16.0525 10.4787 15.4881 10.7619C14.9244 11.045 14.0769 11.25 13.125 11.25C12.4883 11.2535 11.8552 11.1545 11.25 10.9569V10C11.25 9.91937 11.2231 9.84125 11.2106 9.76562C11.7919 9.91687 12.4362 10 13.125 10C14.2456 10 15.2612 9.79 16.055 9.39437C16.1231 9.36063 16.1844 9.31375 16.25 9.2775ZM3.75 11.7775C3.81562 11.8138 3.87688 11.8606 3.94563 11.8944C4.73875 12.29 5.75437 12.5 6.875 12.5C7.99563 12.5 9.01125 12.29 9.805 11.8944C9.87312 11.8606 9.93437 11.8138 10 11.7775V12.5C10 12.6812 9.8025 12.9788 9.23812 13.2619C8.67438 13.545 7.82688 13.75 6.875 13.75C5.92313 13.75 5.07562 13.545 4.51187 13.2619C3.9475 12.9788 3.75 12.6806 3.75 12.5V11.7775ZM16.25 11.7775V12.5C16.25 12.6812 16.0525 12.9788 15.4881 13.2619C14.9244 13.545 14.0769 13.75 13.125 13.75C12.4144 13.75 11.7725 13.65 11.25 13.4762V12.2656C11.8237 12.4169 12.4487 12.5 13.125 12.5C14.2456 12.5 15.2612 12.29 16.055 11.8944C16.1231 11.8606 16.1844 11.8138 16.25 11.7775ZM3.75 14.2775C3.81562 14.3138 3.87688 14.3606 3.94563 14.3944C4.73875 14.79 5.75437 15 6.875 15C7.99563 15 9.01125 14.79 9.805 14.3944C9.87312 14.3606 9.93437 14.3138 10 14.2775V15C10 15.1812 9.8025 15.4788 9.23812 15.7619C8.67438 16.045 7.82688 16.25 6.875 16.25C5.92313 16.25 5.07562 16.045 4.51187 15.7619C3.9475 15.4788 3.75 15.1806 3.75 15V14.2775Z" fill="white"/>
</svg>
