<svg width="10" height="12" viewBox="0 0 10 12" fill="none" xmlns="http://www.w3.org/2000/svg">
    <path d="M5.55079 1.11459C5.55079 0.917413 5.55826 0.709133 5.54896 0.501576C5.53649 0.223399 5.29288 0.00442488 5.0063 7.07394e-05C4.86596 -0.00216445 4.7301 0.0486437 4.62672 0.142021C4.52335 0.235398 4.46034 0.364226 4.45069 0.501946C4.4419 0.663378 4.44742 0.825563 4.44662 0.987409C4.44639 1.03348 4.44659 1.07954 4.44659 1.10985C4.16519 1.18959 3.89086 1.24248 3.6364 1.34355C2.20035 1.91394 1.36587 2.95617 1.14343 4.4631C1.12106 4.64054 1.11141 4.81932 1.11458 4.9981C1.1119 5.94373 1.11499 6.88937 1.10972 7.83498C1.10646 7.90829 1.0773 7.97818 1.02727 8.03262C0.756822 8.30908 0.478829 8.57848 0.20121 8.84811C0.0176043 9.02643 -0.0529622 9.23136 0.0425619 9.47472C0.130938 9.69986 0.325188 9.81474 0.613071 9.81479C3.53781 9.81527 6.46254 9.81527 9.38728 9.81478C9.67297 9.81473 9.86957 9.69806 9.95748 9.47416C10.0531 9.23061 9.98206 9.02625 9.79811 8.84805C9.52323 8.58176 9.25363 8.31019 8.97674 8.04596C8.94544 8.01768 8.92094 7.9829 8.90503 7.94414C8.88912 7.90537 8.88219 7.86361 8.88476 7.82188C8.88772 6.85922 8.88997 5.89653 8.88573 4.93388C8.87842 3.27617 7.86587 1.86346 6.29054 1.31632C6.05881 1.23583 5.81601 1.18601 5.55079 1.11459Z" fill="#0D265E"/>
    <path d="M6.10513 10.9141H3.90122C3.86089 11.468 4.35972 11.9709 4.96977 11.9984C5.57567 12.0257 6.10198 11.5285 6.10513 10.9141Z" fill="#0D265E"/>
</svg>
