<svg width="16" height="16" viewBox="0 0 16 16" fill="none" xmlns="http://www.w3.org/2000/svg">
    <path d="M6.00721 3.38586C6.89387 1.79529 7.3372 1 8 1C8.6628 1 9.10613 1.79529 9.99279 3.38586L10.2222 3.79736C10.4741 4.24935 10.6001 4.47535 10.7965 4.62446C10.993 4.77358 11.2376 4.82893 11.7269 4.93963L12.1723 5.04042C13.8941 5.42999 14.755 5.62477 14.9598 6.28341C15.1646 6.94205 14.5777 7.62835 13.4039 9.00095L13.1003 9.35606C12.7667 9.7461 12.5999 9.94113 12.5249 10.1824C12.4499 10.4237 12.4751 10.6839 12.5255 11.2043L12.5714 11.6781C12.7489 13.5094 12.8376 14.4251 12.3014 14.8322C11.7652 15.2392 10.9591 14.8681 9.34703 14.1258L8.92996 13.9338C8.47185 13.7229 8.2428 13.6174 8 13.6174C7.7572 13.6174 7.52815 13.7229 7.07004 13.9338L6.65297 14.1258C5.04087 14.8681 4.23482 15.2392 3.6986 14.8322C3.16238 14.4251 3.25112 13.5094 3.42858 11.6781L3.47449 11.2043C3.52492 10.6839 3.55013 10.4237 3.4751 10.1824C3.40008 9.94113 3.2333 9.7461 2.89974 9.35606L2.59607 9.00095C1.42227 7.62835 0.835377 6.94205 1.04019 6.28341C1.24501 5.62477 2.1059 5.42999 3.82768 5.04042L4.27312 4.93963C4.7624 4.82893 5.00703 4.77358 5.20346 4.62446C5.39989 4.47535 5.52587 4.24935 5.77783 3.79736L6.00721 3.38586Z" stroke="white" stroke-width="1.5"/>
</svg>
