<svg width="40" height="40" viewBox="0 0 40 40" fill="none" xmlns="http://www.w3.org/2000/svg">
    <rect width="40" height="40" rx="12.549" fill="url(#paint0_linear_13247_57153)"/>
    <path d="M20 3L18.4105 13.6061L20 18.9325L21.5895 13.6061L20 3Z" fill="white"/>
    <path d="M20 37.0004L21.5895 26.3943L20 21.0678L18.4105 26.3943L20 37.0004Z" fill="white"/>
    <path d="M37 20.0005L26.3939 18.411L21.0675 20.0005L26.3939 21.59L37 20.0005Z" fill="white"/>
    <path d="M3 20.0005L13.6061 21.59L18.9325 20.0005L13.6061 18.411L3 20.0005Z" fill="white"/>
    <path d="M31.954 7.90649L23.3694 14.3345L20.7567 19.2408L25.6308 16.5687L31.954 7.90649Z" fill="white"/>
    <path d="M8.0509 32.0941L16.6355 25.6661L19.2482 20.7598L14.374 23.4319L8.0509 32.0941Z" fill="white"/>
    <path d="M32.0913 31.9479L25.6633 23.3632L20.757 20.7506L23.4291 25.6247L32.0913 31.9479Z" fill="white"/>
    <path d="M7.9082 8.05261L14.3362 16.6372L19.2425 19.2499L16.5704 14.3757L7.9082 8.05261Z" fill="white"/>
    <defs>
        <linearGradient id="paint0_linear_13247_57153" x1="20.1529" y1="0.0946042" x2="20.1529" y2="38.2472" gradientUnits="userSpaceOnUse">
            <stop stop-color="#35D487"/>
            <stop offset="0.989583" stop-color="#23C074"/>
        </linearGradient>
    </defs>
</svg>
