<svg width="18" height="14" viewBox="0 0 18 14" fill="none" xmlns="http://www.w3.org/2000/svg">
    <path d="M5.49002 7C6.96982 7 8.16752 5.82578 8.16752 4.375C8.16752 2.92422 6.96982 1.75 5.49002 1.75C4.01023 1.75 2.81252 2.92422 2.81252 4.375C2.81252 5.82578 4.01023 7 5.49002 7ZM7.32602 7.75H7.1276C6.63035 7.98438 6.07812 8.125 5.49002 8.125C4.90193 8.125 4.35209 7.98438 3.85245 7.75H3.65402C2.13359 7.75 0.900024 8.95938 0.900024 10.45V11.125C0.900024 11.7461 1.41401 12.25 2.04752 12.25H8.93252C9.56604 12.25 10.08 11.7461 10.08 11.125V10.45C10.08 8.95938 8.84646 7.75 7.32602 7.75ZM12.375 7C13.6421 7 14.67 5.99219 14.67 4.75C14.67 3.50781 13.6421 2.5 12.375 2.5C11.108 2.5 10.08 3.50781 10.08 4.75C10.08 5.99219 11.108 7 12.375 7ZM13.5225 7.75H13.4317C13.0994 7.8625 12.748 7.9375 12.375 7.9375C12.0021 7.9375 11.6507 7.8625 11.3184 7.75H11.2275C10.7398 7.75 10.2904 7.88828 9.89595 8.11094C10.4793 8.72734 10.845 9.54531 10.845 10.45V11.35C10.845 11.4016 10.8331 11.4508 10.8307 11.5H15.0525C15.686 11.5 16.2 10.9961 16.2 10.375C16.2 8.92422 15.0023 7.75 13.5225 7.75Z" fill="white"/>
</svg>
