<svg width="20" height="20" viewBox="0 0 20 20" fill="none" xmlns="http://www.w3.org/2000/svg">
    <path d="M15.5 9.52942L17 9.52942C17.3333 9.52942 18 9.71765 18 10.4706V13.6079C18 14.549 16.5 16.1177 15 16.1177M4.5 9.52942H3C2.66667 9.52942 2 9.71765 2 10.4706V13.6079C2 14.549 3.5 16.1177 5 16.1177M7.66667 9.52942H12.3333C12.7778 9.52942 13.6667 9.7804 13.6667 10.7843V14.2353C13.6667 15.1765 12 17.0588 10 17.0588C8 17.0588 6.33333 15.1765 6.33333 14.2353V10.7843C6.33333 10.366 6.6 9.52942 7.66667 9.52942Z" stroke="white" stroke-width="1.2" stroke-linecap="round"/>
    <path d="M12.2086 4.82353C12.2086 6.12139 11.1922 7.14706 9.97059 7.14706C8.74898 7.14706 7.73262 6.12139 7.73262 4.82353C7.73262 3.52566 8.74898 2.5 9.97059 2.5C11.1922 2.5 12.2086 3.52566 12.2086 4.82353ZM17 5.52941C17 6.43743 16.2901 7.14706 15.4465 7.14706C14.603 7.14706 13.893 6.43743 13.893 5.52941C13.893 4.6214 14.603 3.91176 15.4465 3.91176C16.2901 3.91176 17 4.6214 17 5.52941ZM6.04813 5.52941C6.04813 6.43743 5.33822 7.14706 4.49465 7.14706C3.65108 7.14706 2.94118 6.43743 2.94118 5.52941C2.94118 4.6214 3.65108 3.91176 4.49465 3.91176C5.33822 3.91176 6.04813 4.6214 6.04813 5.52941Z" stroke="white"/>
</svg>
