<svg width="17" height="16" viewBox="0 0 17 16" fill="none" xmlns="http://www.w3.org/2000/svg">
    <g clip-path="url(#clip0_13869_10119)">
        <path d="M5.42094 3.67673C5.53285 3.62391 5.57984 3.49226 5.52589 3.38269L5.42712 3.18207C5.37318 3.07249 5.23873 3.02648 5.12682 3.0793L1.51623 4.7835C1.40432 4.83632 1.35734 4.96797 1.41128 5.07755L1.51005 5.27817C1.564 5.38774 1.69845 5.43375 1.81036 5.38093L5.42094 3.67673Z" fill="white"/>
        <path d="M7.15918 1.79315C7.19412 1.83253 7.23029 1.85961 7.24806 1.89544C7.42454 2.25122 7.59911 2.60789 7.7718 2.96547C7.81845 3.06177 7.78818 3.142 7.68868 3.18878C7.23512 3.402 6.78117 3.61443 6.32683 3.82605C6.22324 3.87431 6.14251 3.84632 6.09321 3.74591C5.92027 3.39371 5.74809 3.04115 5.57667 2.68824C5.52578 2.58348 5.55451 2.50683 5.66282 2.45602C6.11436 2.24415 6.56631 2.03313 7.01867 1.82294C7.05949 1.80406 7.10905 1.80327 7.15918 1.79315Z" fill="white"/>
        <path d="M6.73994 1.60101C6.46725 1.72847 6.19733 1.85463 5.92195 1.98336C5.91625 1.97283 5.90448 1.95282 5.89433 1.93204C5.62185 1.37445 5.3497 0.816696 5.07791 0.25878C5.05849 0.223546 5.04695 0.184673 5.04406 0.144741C5.04365 0.0291171 5.17786 -0.0413032 5.28237 0.0265566C5.44091 0.129491 5.60025 0.23449 5.74311 0.356694C6.14958 0.704402 6.46441 1.1256 6.73183 1.58218C6.73509 1.58822 6.7378 1.59452 6.73994 1.60101Z" fill="white"/>
        <path d="M6.86594 3.923L7.68936 3.5376C7.71395 3.60245 7.7418 3.6721 7.76688 3.74269C7.95561 4.2739 8.07675 4.81661 8.0525 5.38318C8.04908 5.46327 8.03844 5.54324 8.02747 5.62278C8.01493 5.71371 7.96718 5.76514 7.89188 5.7759C7.81675 5.78663 7.75952 5.75154 7.71763 5.6659C7.49934 5.2196 7.28131 4.77317 7.06355 4.32662C6.99701 4.19039 6.93022 4.05427 6.86594 3.923Z" fill="white"/>
        <path d="M8.5 16L9.24798 11.009L8.5 8.50246L7.75202 11.009L8.5 16Z" fill="white"/>
        <path d="M16.5 8.00001L11.509 7.25203L9.00245 8.00001L11.509 8.74799L16.5 8.00001Z" fill="white"/>
        <path d="M0.5 8.00001L5.49102 8.74799L7.99755 8.00001L5.49102 7.25203L0.5 8.00001Z" fill="white"/>
        <path d="M12.7222 3.77765L10.0828 5.33371L8.8533 7.64252L11.147 6.38506L12.7222 3.77765Z" fill="white"/>
        <path d="M2.87747 13.6912L6.91723 10.6663L8.1467 8.3575L5.85301 9.61495L2.87747 13.6912Z" fill="white"/>
        <path d="M14.1908 13.6225L11.1659 9.58278L8.85708 8.35331L10.1145 10.647L14.1908 13.6225Z" fill="white"/>
    </g>
    <defs>
        <clipPath id="clip0_13869_10119">
            <rect width="16" height="16" fill="white" transform="translate(0.5)"/>
        </clipPath>
    </defs>
</svg>
